<?xml version="1.0" encoding="utf-8"?>
<!-- Generator: Adobe Illustrator 22.0.0, SVG Export Plug-In . SVG Version: 6.00 Build 0)  -->
<svg version="1.1" id="Layer_1" xmlns="http://www.w3.org/2000/svg" xmlns:xlink="http://www.w3.org/1999/xlink" x="0px" y="0px"
	 viewBox="0 0 170 76" style="enable-background:new 0 0 170 76;" xml:space="preserve">
<path d="M109.1,54.6c-0.9,2.1-2,4-3.2,5.8c-1.7,2.4-3,4.1-4.1,5c-1.7,1.5-3.4,2.3-5.3,2.3c-1.4,0-3-0.4-4.9-1.2
	c-1.9-0.8-3.7-1.2-5.2-1.2c-1.7,0-3.5,0.4-5.4,1.2c-1.9,0.8-3.5,1.2-4.7,1.2c-1.8,0.1-3.6-0.7-5.4-2.4c-1.1-1-2.6-2.7-4.3-5.1
	c-1.8-2.6-3.4-5.6-4.5-9.1c-1.3-3.7-1.9-7.3-1.9-10.8c0-4,0.8-7.4,2.6-10.3c1.4-2.3,3.2-4.1,5.4-5.5c2.3-1.3,4.7-2,7.3-2.1
	c1.4,0,3.3,0.4,5.6,1.3c2.3,0.9,3.8,1.3,4.5,1.3c0.5,0,2.2-0.5,5-1.5c2.7-1,4.9-1.4,6.7-1.2c5,0.4,8.8,2.4,11.3,5.9
	c-4.5,2.7-6.7,6.5-6.6,11.4c0,3.8,1.4,6.9,4.1,9.5c1.2,1.2,2.6,2.1,4.1,2.7C109.8,52.9,109.5,53.8,109.1,54.6L109.1,54.6z M97.7,9.5
	c0,3-1.1,5.8-3.3,8.3c-2.6,3-5.8,4.8-9.2,4.5c0-0.4-0.1-0.7-0.1-1.1c0-2.9,1.2-5.9,3.4-8.4c1.1-1.2,2.5-2.3,4.2-3.2
	c1.7-0.8,3.3-1.3,4.8-1.4C97.7,8.7,97.7,9.1,97.7,9.5L97.7,9.5z"/>
</svg>
