<?xml version="1.0" encoding="UTF-8" standalone="no"?>
<!-- Generator: Adobe Illustrator 19.2.1, SVG Export Plug-In . SVG Version: 6.00 Build 0)  -->

<svg
   xmlns:dc="http://purl.org/dc/elements/1.1/"
   xmlns:cc="http://creativecommons.org/ns#"
   xmlns:rdf="http://www.w3.org/1999/02/22-rdf-syntax-ns#"
   xmlns:svg="http://www.w3.org/2000/svg"
   xmlns="http://www.w3.org/2000/svg"
   xmlns:sodipodi="http://sodipodi.sourceforge.net/DTD/sodipodi-0.dtd"
   xmlns:inkscape="http://www.inkscape.org/namespaces/inkscape"
   version="1.1"
   id="layer"
   x="0px"
   y="0px"
   viewBox="0 0 652 652"
   style="enable-background:new 0 0 652 652;"
   xml:space="preserve"
   sodipodi:docname="harvard.svg"
   inkscape:version="0.92.4 (5da689c313, 2019-01-14)"><metadata
   id="metadata157"><rdf:RDF><cc:Work
       rdf:about=""><dc:format>image/svg+xml</dc:format><dc:type
         rdf:resource="http://purl.org/dc/dcmitype/StillImage" /></cc:Work></rdf:RDF></metadata><defs
   id="defs155"><clipPath
     clipPathUnits="userSpaceOnUse"
     id="clipPath4987"><rect
       style="opacity:1;fill:none;fill-opacity:1;stroke:#0000ff;stroke-width:1.90986621;stroke-miterlimit:3.5999999;stroke-dasharray:none;stroke-opacity:1"
       id="rect4989"
       width="642.284"
       height="216.51953"
       x="5.6390057"
       y="213.10492"
       rx="0"
       ry="0" /></clipPath><clipPath
     clipPathUnits="userSpaceOnUse"
     id="clipPath4991"><rect
       style="opacity:1;fill:none;fill-opacity:1;stroke:#0000ff;stroke-width:1.90986621;stroke-miterlimit:3.5999999;stroke-dasharray:none;stroke-opacity:1"
       id="rect4993"
       width="642.284"
       height="216.51953"
       x="5.6390057"
       y="213.10492"
       rx="0"
       ry="0" /></clipPath><clipPath
     clipPathUnits="userSpaceOnUse"
     id="clipPath4995"><rect
       style="opacity:1;fill:none;fill-opacity:1;stroke:#0000ff;stroke-width:1.90986621;stroke-miterlimit:3.5999999;stroke-dasharray:none;stroke-opacity:1"
       id="rect4997"
       width="642.284"
       height="216.51953"
       x="5.6390057"
       y="213.10492"
       rx="0"
       ry="0" /></clipPath><clipPath
     clipPathUnits="userSpaceOnUse"
     id="clipPath4999"><rect
       style="opacity:1;fill:none;fill-opacity:1;stroke:#0000ff;stroke-width:1.90986621;stroke-miterlimit:3.5999999;stroke-dasharray:none;stroke-opacity:1"
       id="rect5001"
       width="642.284"
       height="216.51953"
       x="5.6390057"
       y="213.10492"
       rx="0"
       ry="0" /></clipPath><clipPath
     clipPathUnits="userSpaceOnUse"
     id="clipPath5003"><rect
       style="opacity:1;fill:none;fill-opacity:1;stroke:#0000ff;stroke-width:1.90986621;stroke-miterlimit:3.5999999;stroke-dasharray:none;stroke-opacity:1"
       id="rect5005"
       width="642.284"
       height="216.51953"
       x="5.6390057"
       y="213.10492"
       rx="0"
       ry="0" /></clipPath><clipPath
     clipPathUnits="userSpaceOnUse"
     id="clipPath5007"><rect
       style="opacity:1;fill:none;fill-opacity:1;stroke:#0000ff;stroke-width:1.90986621;stroke-miterlimit:3.5999999;stroke-dasharray:none;stroke-opacity:1"
       id="rect5009"
       width="642.284"
       height="216.51953"
       x="5.6390057"
       y="213.10492"
       rx="0"
       ry="0" /></clipPath><clipPath
     clipPathUnits="userSpaceOnUse"
     id="clipPath5011"><rect
       style="opacity:1;fill:none;fill-opacity:1;stroke:#0000ff;stroke-width:1.90986621;stroke-miterlimit:3.5999999;stroke-dasharray:none;stroke-opacity:1"
       id="rect5013"
       width="642.284"
       height="216.51953"
       x="5.6390057"
       y="213.10492"
       rx="0"
       ry="0" /></clipPath><clipPath
     clipPathUnits="userSpaceOnUse"
     id="clipPath5015"><rect
       style="opacity:1;fill:none;fill-opacity:1;stroke:#0000ff;stroke-width:1.90986621;stroke-miterlimit:3.5999999;stroke-dasharray:none;stroke-opacity:1"
       id="rect5017"
       width="642.284"
       height="216.51953"
       x="5.6390057"
       y="213.10492"
       rx="0"
       ry="0" /></clipPath><clipPath
     clipPathUnits="userSpaceOnUse"
     id="clipPath5019"><rect
       style="opacity:1;fill:none;fill-opacity:1;stroke:#0000ff;stroke-width:1.90986621;stroke-miterlimit:3.5999999;stroke-dasharray:none;stroke-opacity:1"
       id="rect5021"
       width="642.284"
       height="216.51953"
       x="5.6390057"
       y="213.10492"
       rx="0"
       ry="0" /></clipPath><clipPath
     clipPathUnits="userSpaceOnUse"
     id="clipPath5023"><rect
       style="opacity:1;fill:none;fill-opacity:1;stroke:#0000ff;stroke-width:1.90986621;stroke-miterlimit:3.5999999;stroke-dasharray:none;stroke-opacity:1"
       id="rect5025"
       width="642.284"
       height="216.51953"
       x="5.6390057"
       y="213.10492"
       rx="0"
       ry="0" /></clipPath><clipPath
     clipPathUnits="userSpaceOnUse"
     id="clipPath5027"><rect
       style="opacity:1;fill:none;fill-opacity:1;stroke:#0000ff;stroke-width:1.90986621;stroke-miterlimit:3.5999999;stroke-dasharray:none;stroke-opacity:1"
       id="rect5029"
       width="642.284"
       height="216.51953"
       x="5.6390057"
       y="213.10492"
       rx="0"
       ry="0" /></clipPath><clipPath
     clipPathUnits="userSpaceOnUse"
     id="clipPath5031"><rect
       style="opacity:1;fill:none;fill-opacity:1;stroke:#0000ff;stroke-width:1.90986621;stroke-miterlimit:3.5999999;stroke-dasharray:none;stroke-opacity:1"
       id="rect5033"
       width="642.284"
       height="216.51953"
       x="5.6390057"
       y="213.10492"
       rx="0"
       ry="0" /></clipPath><clipPath
     clipPathUnits="userSpaceOnUse"
     id="clipPath5035"><rect
       style="opacity:1;fill:none;fill-opacity:1;stroke:#0000ff;stroke-width:1.90986621;stroke-miterlimit:3.5999999;stroke-dasharray:none;stroke-opacity:1"
       id="rect5037"
       width="642.284"
       height="216.51953"
       x="5.6390057"
       y="213.10492"
       rx="0"
       ry="0" /></clipPath><clipPath
     clipPathUnits="userSpaceOnUse"
     id="clipPath5039"><rect
       style="opacity:1;fill:none;fill-opacity:1;stroke:#0000ff;stroke-width:1.90986621;stroke-miterlimit:3.5999999;stroke-dasharray:none;stroke-opacity:1"
       id="rect5041"
       width="642.284"
       height="216.51953"
       x="5.6390057"
       y="213.10492"
       rx="0"
       ry="0" /></clipPath><clipPath
     clipPathUnits="userSpaceOnUse"
     id="clipPath5043"><rect
       style="opacity:1;fill:none;fill-opacity:1;stroke:#0000ff;stroke-width:1.90986621;stroke-miterlimit:3.5999999;stroke-dasharray:none;stroke-opacity:1"
       id="rect5045"
       width="642.284"
       height="216.51953"
       x="5.6390057"
       y="213.10492"
       rx="0"
       ry="0" /></clipPath><clipPath
     clipPathUnits="userSpaceOnUse"
     id="clipPath5047"><rect
       style="opacity:1;fill:none;fill-opacity:1;stroke:#0000ff;stroke-width:1.90986621;stroke-miterlimit:3.5999999;stroke-dasharray:none;stroke-opacity:1"
       id="rect5049"
       width="642.284"
       height="216.51953"
       x="5.6390057"
       y="213.10492"
       rx="0"
       ry="0" /></clipPath><clipPath
     clipPathUnits="userSpaceOnUse"
     id="clipPath5051"><rect
       style="opacity:1;fill:none;fill-opacity:1;stroke:#0000ff;stroke-width:1.90986621;stroke-miterlimit:3.5999999;stroke-dasharray:none;stroke-opacity:1"
       id="rect5053"
       width="642.284"
       height="216.51953"
       x="5.6390057"
       y="213.10492"
       rx="0"
       ry="0" /></clipPath><clipPath
     clipPathUnits="userSpaceOnUse"
     id="clipPath5055"><rect
       style="opacity:1;fill:none;fill-opacity:1;stroke:#0000ff;stroke-width:1.90986621;stroke-miterlimit:3.5999999;stroke-dasharray:none;stroke-opacity:1"
       id="rect5057"
       width="642.284"
       height="216.51953"
       x="5.6390057"
       y="213.10492"
       rx="0"
       ry="0" /></clipPath><clipPath
     clipPathUnits="userSpaceOnUse"
     id="clipPath5059"><rect
       style="opacity:1;fill:none;fill-opacity:1;stroke:#0000ff;stroke-width:1.90986621;stroke-miterlimit:3.5999999;stroke-dasharray:none;stroke-opacity:1"
       id="rect5061"
       width="642.284"
       height="216.51953"
       x="5.6390057"
       y="213.10492"
       rx="0"
       ry="0" /></clipPath><clipPath
     clipPathUnits="userSpaceOnUse"
     id="clipPath5063"><rect
       style="opacity:1;fill:none;fill-opacity:1;stroke:#0000ff;stroke-width:1.90986621;stroke-miterlimit:3.5999999;stroke-dasharray:none;stroke-opacity:1"
       id="rect5065"
       width="642.284"
       height="216.51953"
       x="5.6390057"
       y="213.10492"
       rx="0"
       ry="0" /></clipPath><clipPath
     clipPathUnits="userSpaceOnUse"
     id="clipPath5067"><rect
       style="opacity:1;fill:none;fill-opacity:1;stroke:#0000ff;stroke-width:1.90986621;stroke-miterlimit:3.5999999;stroke-dasharray:none;stroke-opacity:1"
       id="rect5069"
       width="642.284"
       height="216.51953"
       x="5.6390057"
       y="213.10492"
       rx="0"
       ry="0" /></clipPath><clipPath
     clipPathUnits="userSpaceOnUse"
     id="clipPath5071"><rect
       style="opacity:1;fill:none;fill-opacity:1;stroke:#0000ff;stroke-width:1.90986621;stroke-miterlimit:3.5999999;stroke-dasharray:none;stroke-opacity:1"
       id="rect5073"
       width="642.284"
       height="216.51953"
       x="5.6390057"
       y="213.10492"
       rx="0"
       ry="0" /></clipPath><clipPath
     clipPathUnits="userSpaceOnUse"
     id="clipPath5075"><rect
       style="opacity:1;fill:none;fill-opacity:1;stroke:#0000ff;stroke-width:1.90986621;stroke-miterlimit:3.5999999;stroke-dasharray:none;stroke-opacity:1"
       id="rect5077"
       width="642.284"
       height="216.51953"
       x="5.6390057"
       y="213.10492"
       rx="0"
       ry="0" /></clipPath><clipPath
     clipPathUnits="userSpaceOnUse"
     id="clipPath5079"><rect
       style="opacity:1;fill:none;fill-opacity:1;stroke:#0000ff;stroke-width:1.90986621;stroke-miterlimit:3.5999999;stroke-dasharray:none;stroke-opacity:1"
       id="rect5081"
       width="642.284"
       height="216.51953"
       x="5.6390057"
       y="213.10492"
       rx="0"
       ry="0" /></clipPath><clipPath
     clipPathUnits="userSpaceOnUse"
     id="clipPath5083"><rect
       style="opacity:1;fill:none;fill-opacity:1;stroke:#0000ff;stroke-width:1.90986621;stroke-miterlimit:3.5999999;stroke-dasharray:none;stroke-opacity:1"
       id="rect5085"
       width="642.284"
       height="216.51953"
       x="5.6390057"
       y="213.10492"
       rx="0"
       ry="0" /></clipPath><clipPath
     clipPathUnits="userSpaceOnUse"
     id="clipPath5087"><rect
       style="opacity:1;fill:none;fill-opacity:1;stroke:#0000ff;stroke-width:1.90986621;stroke-miterlimit:3.5999999;stroke-dasharray:none;stroke-opacity:1"
       id="rect5089"
       width="642.284"
       height="216.51953"
       x="5.6390057"
       y="213.10492"
       rx="0"
       ry="0" /></clipPath><clipPath
     clipPathUnits="userSpaceOnUse"
     id="clipPath5091"><rect
       style="opacity:1;fill:none;fill-opacity:1;stroke:#0000ff;stroke-width:1.90986621;stroke-miterlimit:3.5999999;stroke-dasharray:none;stroke-opacity:1"
       id="rect5093"
       width="642.284"
       height="216.51953"
       x="5.6390057"
       y="213.10492"
       rx="0"
       ry="0" /></clipPath><clipPath
     clipPathUnits="userSpaceOnUse"
     id="clipPath5095"><rect
       style="opacity:1;fill:none;fill-opacity:1;stroke:#0000ff;stroke-width:1.90986621;stroke-miterlimit:3.5999999;stroke-dasharray:none;stroke-opacity:1"
       id="rect5097"
       width="642.284"
       height="216.51953"
       x="5.6390057"
       y="213.10492"
       rx="0"
       ry="0" /></clipPath><clipPath
     clipPathUnits="userSpaceOnUse"
     id="clipPath5099"><rect
       style="opacity:1;fill:none;fill-opacity:1;stroke:#0000ff;stroke-width:1.90986621;stroke-miterlimit:3.5999999;stroke-dasharray:none;stroke-opacity:1"
       id="rect5101"
       width="642.284"
       height="216.51953"
       x="5.6390057"
       y="213.10492"
       rx="0"
       ry="0" /></clipPath><clipPath
     clipPathUnits="userSpaceOnUse"
     id="clipPath5103"><rect
       style="opacity:1;fill:none;fill-opacity:1;stroke:#0000ff;stroke-width:1.90986621;stroke-miterlimit:3.5999999;stroke-dasharray:none;stroke-opacity:1"
       id="rect5105"
       width="642.284"
       height="216.51953"
       x="5.6390057"
       y="213.10492"
       rx="0"
       ry="0" /></clipPath><clipPath
     clipPathUnits="userSpaceOnUse"
     id="clipPath5107"><rect
       style="opacity:1;fill:none;fill-opacity:1;stroke:#0000ff;stroke-width:1.90986621;stroke-miterlimit:3.5999999;stroke-dasharray:none;stroke-opacity:1"
       id="rect5109"
       width="642.284"
       height="216.51953"
       x="5.6390057"
       y="213.10492"
       rx="0"
       ry="0" /></clipPath><clipPath
     clipPathUnits="userSpaceOnUse"
     id="clipPath5111"><rect
       style="opacity:1;fill:none;fill-opacity:1;stroke:#0000ff;stroke-width:1.90986621;stroke-miterlimit:3.5999999;stroke-dasharray:none;stroke-opacity:1"
       id="rect5113"
       width="642.284"
       height="216.51953"
       x="5.6390057"
       y="213.10492"
       rx="0"
       ry="0" /></clipPath><clipPath
     clipPathUnits="userSpaceOnUse"
     id="clipPath5115"><rect
       style="opacity:1;fill:none;fill-opacity:1;stroke:#0000ff;stroke-width:1.90986621;stroke-miterlimit:3.5999999;stroke-dasharray:none;stroke-opacity:1"
       id="rect5117"
       width="642.284"
       height="216.51953"
       x="5.6390057"
       y="213.10492"
       rx="0"
       ry="0" /></clipPath><clipPath
     clipPathUnits="userSpaceOnUse"
     id="clipPath5119"><rect
       style="opacity:1;fill:none;fill-opacity:1;stroke:#0000ff;stroke-width:1.90986621;stroke-miterlimit:3.5999999;stroke-dasharray:none;stroke-opacity:1"
       id="rect5121"
       width="642.284"
       height="216.51953"
       x="5.6390057"
       y="213.10492"
       rx="0"
       ry="0" /></clipPath><clipPath
     clipPathUnits="userSpaceOnUse"
     id="clipPath5123"><rect
       style="opacity:1;fill:none;fill-opacity:1;stroke:#0000ff;stroke-width:1.90986621;stroke-miterlimit:3.5999999;stroke-dasharray:none;stroke-opacity:1"
       id="rect5125"
       width="642.284"
       height="216.51953"
       x="5.6390057"
       y="213.10492"
       rx="0"
       ry="0" /></clipPath><clipPath
     clipPathUnits="userSpaceOnUse"
     id="clipPath5127"><rect
       style="opacity:1;fill:none;fill-opacity:1;stroke:#0000ff;stroke-width:1.90986621;stroke-miterlimit:3.5999999;stroke-dasharray:none;stroke-opacity:1"
       id="rect5129"
       width="642.284"
       height="216.51953"
       x="5.6390057"
       y="213.10492"
       rx="0"
       ry="0" /></clipPath><clipPath
     clipPathUnits="userSpaceOnUse"
     id="clipPath5131"><rect
       style="opacity:1;fill:none;fill-opacity:1;stroke:#0000ff;stroke-width:1.90986621;stroke-miterlimit:3.5999999;stroke-dasharray:none;stroke-opacity:1"
       id="rect5133"
       width="642.284"
       height="216.51953"
       x="5.6390057"
       y="213.10492"
       rx="0"
       ry="0" /></clipPath><clipPath
     clipPathUnits="userSpaceOnUse"
     id="clipPath5135"><rect
       style="opacity:1;fill:none;fill-opacity:1;stroke:#0000ff;stroke-width:1.90986621;stroke-miterlimit:3.5999999;stroke-dasharray:none;stroke-opacity:1"
       id="rect5137"
       width="642.284"
       height="216.51953"
       x="5.6390057"
       y="213.10492"
       rx="0"
       ry="0" /></clipPath><clipPath
     clipPathUnits="userSpaceOnUse"
     id="clipPath5139"><rect
       style="opacity:1;fill:none;fill-opacity:1;stroke:#0000ff;stroke-width:1.90986621;stroke-miterlimit:3.5999999;stroke-dasharray:none;stroke-opacity:1"
       id="rect5141"
       width="642.284"
       height="216.51953"
       x="5.6390057"
       y="213.10492"
       rx="0"
       ry="0" /></clipPath><clipPath
     clipPathUnits="userSpaceOnUse"
     id="clipPath5143"><rect
       style="opacity:1;fill:none;fill-opacity:1;stroke:#0000ff;stroke-width:1.90986621;stroke-miterlimit:3.5999999;stroke-dasharray:none;stroke-opacity:1"
       id="rect5145"
       width="642.284"
       height="216.51953"
       x="5.6390057"
       y="213.10492"
       rx="0"
       ry="0" /></clipPath><clipPath
     clipPathUnits="userSpaceOnUse"
     id="clipPath5147"><rect
       style="opacity:1;fill:none;fill-opacity:1;stroke:#0000ff;stroke-width:1.90986621;stroke-miterlimit:3.5999999;stroke-dasharray:none;stroke-opacity:1"
       id="rect5149"
       width="642.284"
       height="216.51953"
       x="5.6390057"
       y="213.10492"
       rx="0"
       ry="0" /></clipPath><clipPath
     clipPathUnits="userSpaceOnUse"
     id="clipPath5151"><rect
       style="opacity:1;fill:none;fill-opacity:1;stroke:#0000ff;stroke-width:1.90986621;stroke-miterlimit:3.5999999;stroke-dasharray:none;stroke-opacity:1"
       id="rect5153"
       width="642.284"
       height="216.51953"
       x="5.6390057"
       y="213.10492"
       rx="0"
       ry="0" /></clipPath><clipPath
     clipPathUnits="userSpaceOnUse"
     id="clipPath5155"><rect
       style="opacity:1;fill:none;fill-opacity:1;stroke:#0000ff;stroke-width:1.90986621;stroke-miterlimit:3.5999999;stroke-dasharray:none;stroke-opacity:1"
       id="rect5157"
       width="642.284"
       height="216.51953"
       x="5.6390057"
       y="213.10492"
       rx="0"
       ry="0" /></clipPath><clipPath
     clipPathUnits="userSpaceOnUse"
     id="clipPath5159"><rect
       style="opacity:1;fill:none;fill-opacity:1;stroke:#0000ff;stroke-width:1.90986621;stroke-miterlimit:3.5999999;stroke-dasharray:none;stroke-opacity:1"
       id="rect5161"
       width="642.284"
       height="216.51953"
       x="5.6390057"
       y="213.10492"
       rx="0"
       ry="0" /></clipPath><clipPath
     clipPathUnits="userSpaceOnUse"
     id="clipPath5163"><rect
       style="opacity:1;fill:none;fill-opacity:1;stroke:#0000ff;stroke-width:1.90986621;stroke-miterlimit:3.5999999;stroke-dasharray:none;stroke-opacity:1"
       id="rect5165"
       width="642.284"
       height="216.51953"
       x="5.6390057"
       y="213.10492"
       rx="0"
       ry="0" /></clipPath><clipPath
     clipPathUnits="userSpaceOnUse"
     id="clipPath5167"><rect
       style="opacity:1;fill:none;fill-opacity:1;stroke:#0000ff;stroke-width:1.90986621;stroke-miterlimit:3.5999999;stroke-dasharray:none;stroke-opacity:1"
       id="rect5169"
       width="642.284"
       height="216.51953"
       x="5.6390057"
       y="213.10492"
       rx="0"
       ry="0" /></clipPath><clipPath
     clipPathUnits="userSpaceOnUse"
     id="clipPath5171"><rect
       style="opacity:1;fill:none;fill-opacity:1;stroke:#0000ff;stroke-width:1.90986621;stroke-miterlimit:3.5999999;stroke-dasharray:none;stroke-opacity:1"
       id="rect5173"
       width="642.284"
       height="216.51953"
       x="5.6390057"
       y="213.10492"
       rx="0"
       ry="0" /></clipPath><clipPath
     clipPathUnits="userSpaceOnUse"
     id="clipPath5175"><rect
       style="opacity:1;fill:none;fill-opacity:1;stroke:#0000ff;stroke-width:1.90986621;stroke-miterlimit:3.5999999;stroke-dasharray:none;stroke-opacity:1"
       id="rect5177"
       width="642.284"
       height="216.51953"
       x="5.6390057"
       y="213.10492"
       rx="0"
       ry="0" /></clipPath><clipPath
     clipPathUnits="userSpaceOnUse"
     id="clipPath5179"><rect
       style="opacity:1;fill:none;fill-opacity:1;stroke:#0000ff;stroke-width:1.90986621;stroke-miterlimit:3.5999999;stroke-dasharray:none;stroke-opacity:1"
       id="rect5181"
       width="642.284"
       height="216.51953"
       x="5.6390057"
       y="213.10492"
       rx="0"
       ry="0" /></clipPath><clipPath
     clipPathUnits="userSpaceOnUse"
     id="clipPath5183"><rect
       style="opacity:1;fill:none;fill-opacity:1;stroke:#0000ff;stroke-width:1.90986621;stroke-miterlimit:3.5999999;stroke-dasharray:none;stroke-opacity:1"
       id="rect5185"
       width="642.284"
       height="216.51953"
       x="5.6390057"
       y="213.10492"
       rx="0"
       ry="0" /></clipPath><clipPath
     clipPathUnits="userSpaceOnUse"
     id="clipPath5187"><rect
       style="opacity:1;fill:none;fill-opacity:1;stroke:#0000ff;stroke-width:1.90986621;stroke-miterlimit:3.5999999;stroke-dasharray:none;stroke-opacity:1"
       id="rect5189"
       width="642.284"
       height="216.51953"
       x="5.6390057"
       y="213.10492"
       rx="0"
       ry="0" /></clipPath><clipPath
     clipPathUnits="userSpaceOnUse"
     id="clipPath5191"><rect
       style="opacity:1;fill:none;fill-opacity:1;stroke:#0000ff;stroke-width:1.90986621;stroke-miterlimit:3.5999999;stroke-dasharray:none;stroke-opacity:1"
       id="rect5193"
       width="642.284"
       height="216.51953"
       x="5.6390057"
       y="213.10492"
       rx="0"
       ry="0" /></clipPath><clipPath
     clipPathUnits="userSpaceOnUse"
     id="clipPath5195"><rect
       style="opacity:1;fill:none;fill-opacity:1;stroke:#0000ff;stroke-width:1.90986621;stroke-miterlimit:3.5999999;stroke-dasharray:none;stroke-opacity:1"
       id="rect5197"
       width="642.284"
       height="216.51953"
       x="5.6390057"
       y="213.10492"
       rx="0"
       ry="0" /></clipPath><clipPath
     clipPathUnits="userSpaceOnUse"
     id="clipPath5199"><rect
       style="opacity:1;fill:none;fill-opacity:1;stroke:#0000ff;stroke-width:1.90986621;stroke-miterlimit:3.5999999;stroke-dasharray:none;stroke-opacity:1"
       id="rect5201"
       width="642.284"
       height="216.51953"
       x="5.6390057"
       y="213.10492"
       rx="0"
       ry="0" /></clipPath><clipPath
     clipPathUnits="userSpaceOnUse"
     id="clipPath5203"><rect
       style="opacity:1;fill:none;fill-opacity:1;stroke:#0000ff;stroke-width:1.90986621;stroke-miterlimit:3.5999999;stroke-dasharray:none;stroke-opacity:1"
       id="rect5205"
       width="642.284"
       height="216.51953"
       x="5.6390057"
       y="213.10492"
       rx="0"
       ry="0" /></clipPath><clipPath
     clipPathUnits="userSpaceOnUse"
     id="clipPath5207"><rect
       style="opacity:1;fill:none;fill-opacity:1;stroke:#0000ff;stroke-width:1.90986621;stroke-miterlimit:3.5999999;stroke-dasharray:none;stroke-opacity:1"
       id="rect5209"
       width="642.284"
       height="216.51953"
       x="5.6390057"
       y="213.10492"
       rx="0"
       ry="0" /></clipPath><clipPath
     clipPathUnits="userSpaceOnUse"
     id="clipPath5211"><rect
       style="opacity:1;fill:none;fill-opacity:1;stroke:#0000ff;stroke-width:1.90986621;stroke-miterlimit:3.5999999;stroke-dasharray:none;stroke-opacity:1"
       id="rect5213"
       width="642.284"
       height="216.51953"
       x="5.6390057"
       y="213.10492"
       rx="0"
       ry="0" /></clipPath><clipPath
     clipPathUnits="userSpaceOnUse"
     id="clipPath5215"><rect
       style="opacity:1;fill:none;fill-opacity:1;stroke:#0000ff;stroke-width:1.90986621;stroke-miterlimit:3.5999999;stroke-dasharray:none;stroke-opacity:1"
       id="rect5217"
       width="642.284"
       height="216.51953"
       x="5.6390057"
       y="213.10492"
       rx="0"
       ry="0" /></clipPath><clipPath
     clipPathUnits="userSpaceOnUse"
     id="clipPath5219"><rect
       style="opacity:1;fill:none;fill-opacity:1;stroke:#0000ff;stroke-width:1.90986621;stroke-miterlimit:3.5999999;stroke-dasharray:none;stroke-opacity:1"
       id="rect5221"
       width="642.284"
       height="216.51953"
       x="5.6390057"
       y="213.10492"
       rx="0"
       ry="0" /></clipPath><clipPath
     clipPathUnits="userSpaceOnUse"
     id="clipPath5223"><rect
       style="opacity:1;fill:none;fill-opacity:1;stroke:#0000ff;stroke-width:1.90986621;stroke-miterlimit:3.5999999;stroke-dasharray:none;stroke-opacity:1"
       id="rect5225"
       width="642.284"
       height="216.51953"
       x="5.6390057"
       y="213.10492"
       rx="0"
       ry="0" /></clipPath><clipPath
     clipPathUnits="userSpaceOnUse"
     id="clipPath5227"><rect
       style="opacity:1;fill:none;fill-opacity:1;stroke:#0000ff;stroke-width:1.90986621;stroke-miterlimit:3.5999999;stroke-dasharray:none;stroke-opacity:1"
       id="rect5229"
       width="642.284"
       height="216.51953"
       x="5.6390057"
       y="213.10492"
       rx="0"
       ry="0" /></clipPath><clipPath
     clipPathUnits="userSpaceOnUse"
     id="clipPath5231"><rect
       style="opacity:1;fill:none;fill-opacity:1;stroke:#0000ff;stroke-width:1.90986621;stroke-miterlimit:3.5999999;stroke-dasharray:none;stroke-opacity:1"
       id="rect5233"
       width="642.284"
       height="216.51953"
       x="5.6390057"
       y="213.10492"
       rx="0"
       ry="0" /></clipPath><clipPath
     clipPathUnits="userSpaceOnUse"
     id="clipPath5235"><rect
       style="opacity:1;fill:none;fill-opacity:1;stroke:#0000ff;stroke-width:1.90986621;stroke-miterlimit:3.5999999;stroke-dasharray:none;stroke-opacity:1"
       id="rect5237"
       width="642.284"
       height="216.51953"
       x="5.6390057"
       y="213.10492"
       rx="0"
       ry="0" /></clipPath><clipPath
     clipPathUnits="userSpaceOnUse"
     id="clipPath5239"><rect
       style="opacity:1;fill:none;fill-opacity:1;stroke:#0000ff;stroke-width:1.90986621;stroke-miterlimit:3.5999999;stroke-dasharray:none;stroke-opacity:1"
       id="rect5241"
       width="642.284"
       height="216.51953"
       x="5.6390057"
       y="213.10492"
       rx="0"
       ry="0" /></clipPath><clipPath
     clipPathUnits="userSpaceOnUse"
     id="clipPath5243"><rect
       style="opacity:1;fill:none;fill-opacity:1;stroke:#0000ff;stroke-width:1.90986621;stroke-miterlimit:3.5999999;stroke-dasharray:none;stroke-opacity:1"
       id="rect5245"
       width="642.284"
       height="216.51953"
       x="5.6390057"
       y="213.10492"
       rx="0"
       ry="0" /></clipPath><clipPath
     clipPathUnits="userSpaceOnUse"
     id="clipPath5247"><rect
       style="opacity:1;fill:none;fill-opacity:1;stroke:#0000ff;stroke-width:1.90986621;stroke-miterlimit:3.5999999;stroke-dasharray:none;stroke-opacity:1"
       id="rect5249"
       width="642.284"
       height="216.51953"
       x="5.6390057"
       y="213.10492"
       rx="0"
       ry="0" /></clipPath><clipPath
     clipPathUnits="userSpaceOnUse"
     id="clipPath5251"><rect
       style="opacity:1;fill:none;fill-opacity:1;stroke:#0000ff;stroke-width:1.90986621;stroke-miterlimit:3.5999999;stroke-dasharray:none;stroke-opacity:1"
       id="rect5253"
       width="642.284"
       height="216.51953"
       x="5.6390057"
       y="213.10492"
       rx="0"
       ry="0" /></clipPath><clipPath
     clipPathUnits="userSpaceOnUse"
     id="clipPath5255"><rect
       style="opacity:1;fill:none;fill-opacity:1;stroke:#0000ff;stroke-width:1.90986621;stroke-miterlimit:3.5999999;stroke-dasharray:none;stroke-opacity:1"
       id="rect5257"
       width="642.284"
       height="216.51953"
       x="5.6390057"
       y="213.10492"
       rx="0"
       ry="0" /></clipPath><clipPath
     clipPathUnits="userSpaceOnUse"
     id="clipPath5259"><rect
       style="opacity:1;fill:none;fill-opacity:1;stroke:#0000ff;stroke-width:1.90986621;stroke-miterlimit:3.5999999;stroke-dasharray:none;stroke-opacity:1"
       id="rect5261"
       width="642.284"
       height="216.51953"
       x="5.6390057"
       y="213.10492"
       rx="0"
       ry="0" /></clipPath><clipPath
     clipPathUnits="userSpaceOnUse"
     id="clipPath5263"><rect
       style="opacity:1;fill:none;fill-opacity:1;stroke:#0000ff;stroke-width:1.90986621;stroke-miterlimit:3.5999999;stroke-dasharray:none;stroke-opacity:1"
       id="rect5265"
       width="642.284"
       height="216.51953"
       x="5.6390057"
       y="213.10492"
       rx="0"
       ry="0" /></clipPath><clipPath
     clipPathUnits="userSpaceOnUse"
     id="clipPath5267"><rect
       style="opacity:1;fill:none;fill-opacity:1;stroke:#0000ff;stroke-width:1.90986621;stroke-miterlimit:3.5999999;stroke-dasharray:none;stroke-opacity:1"
       id="rect5269"
       width="642.284"
       height="216.51953"
       x="5.6390057"
       y="213.10492"
       rx="0"
       ry="0" /></clipPath><clipPath
     clipPathUnits="userSpaceOnUse"
     id="clipPath5271"><rect
       style="opacity:1;fill:none;fill-opacity:1;stroke:#0000ff;stroke-width:1.90986621;stroke-miterlimit:3.5999999;stroke-dasharray:none;stroke-opacity:1"
       id="rect5273"
       width="642.284"
       height="216.51953"
       x="5.6390057"
       y="213.10492"
       rx="0"
       ry="0" /></clipPath><clipPath
     clipPathUnits="userSpaceOnUse"
     id="clipPath5275"><rect
       style="opacity:1;fill:none;fill-opacity:1;stroke:#0000ff;stroke-width:1.90986621;stroke-miterlimit:3.5999999;stroke-dasharray:none;stroke-opacity:1"
       id="rect5277"
       width="642.284"
       height="216.51953"
       x="5.6390057"
       y="213.10492"
       rx="0"
       ry="0" /></clipPath><clipPath
     clipPathUnits="userSpaceOnUse"
     id="clipPath5279"><rect
       style="opacity:1;fill:none;fill-opacity:1;stroke:#0000ff;stroke-width:1.90986621;stroke-miterlimit:3.5999999;stroke-dasharray:none;stroke-opacity:1"
       id="rect5281"
       width="642.284"
       height="216.51953"
       x="5.6390057"
       y="213.10492"
       rx="0"
       ry="0" /></clipPath></defs><sodipodi:namedview
   pagecolor="#ffffff"
   bordercolor="#666666"
   borderopacity="1"
   objecttolerance="10"
   gridtolerance="10"
   guidetolerance="10"
   inkscape:pageopacity="0"
   inkscape:pageshadow="2"
   inkscape:window-width="1850"
   inkscape:window-height="1016"
   id="namedview153"
   showgrid="false"
   inkscape:zoom="0.72392638"
   inkscape:cx="561.5667"
   inkscape:cy="543.85936"
   inkscape:window-x="70"
   inkscape:window-y="27"
   inkscape:window-maximized="1"
   inkscape:current-layer="layer" />
<style
   type="text/css"
   id="style2">
	.st0{fill:#1D1D1B;}
	.st1{fill:#A62131;}
	.st2{fill:none;stroke:#000000;stroke-width:0.6483;}
	.st3{fill:#FFFFFF;}
	.st4{fill:none;stroke:#000000;stroke-width:2.818820e-002;}
</style>
<path
   class="st0"
   d="M268.8,353.7c0-1.3-0.8-2.2-2.5-2.6v-0.8c0.9,0,4.1,0.1,4.9,0.1c0.7,0,3.8-0.1,4.7-0.1v0.8  c-1.6,0.3-2.4,1.2-2.4,2.6v16c0,5.1,2.8,7.9,8.7,7.9c5,0,9-2.2,9-7.6v-16.5c0-1.2-0.7-2.1-2.6-2.5v-0.8c0.7,0,3.3,0.1,4.1,0.1  c0.7,0,3.5-0.1,4.2-0.1v0.8c-1.8,0.4-2.6,1.2-2.6,2.5v15.6c0,7-4.1,11-12.9,11c-8.2,0-12.5-3.7-12.5-10.3L268.8,353.7z"
   id="path4"
   clip-path="url(#clipPath5279)" />
<path
   class="st0"
   d="M304,379c1.9-0.4,2.7-1.3,2.7-2.5v-22.1c0-1.9-1-2.7-2.7-3.2v-0.8c1,0.1,2.6,0.1,3.4,0.1c0.9,0,1.8,0,2.7-0.1  l19.3,22.6v-19.3c0-1.2-0.7-2.1-2.6-2.5v-0.8c0.7,0,3.2,0.1,4.1,0.1c0.7,0,3.4-0.1,4.1-0.1v0.8c-1.8,0.4-2.7,1.2-2.7,2.5v26.6h-1.2  c-0.7-0.2-2.1-1-4.2-3.3l-17.3-20v19.5c0,1.2,0.7,2.1,2.6,2.5v0.8c-0.7,0-3.2-0.1-4.1-0.1c-0.7,0-3.4,0.1-4.1,0.1V379z"
   id="path6"
   clip-path="url(#clipPath5275)" />
<path
   class="st0"
   d="M456.4,373h0.8c0.4,1.6,1.4,3.1,2.7,4c1.6,1,3.4,1.5,5.3,1.4c3.9,0,6.4-1.9,6.4-4.9c0-3.1-3.2-4.8-6.9-6.7  c-2.8-1.4-8.3-3.7-8.3-9c0-5,3.8-8,9.9-8c4,0,5.9,1,8.6,0.8l-0.1,6h-0.8c-1.1-3.5-4.3-4.8-7.8-4.8c-4,0-5.4,2.2-5.4,4.5  c0,3.3,3.2,4.9,6.9,6.5c4.1,1.8,8.6,4.1,8.6,9.2c0,4.8-3.8,8.4-10.8,8.4c-4.1,0-6.6-1.2-8.8-1.5L456.4,373z"
   id="path8"
   clip-path="url(#clipPath5271)" />
<path
   class="st0"
   d="M544,366.4v10c0,0.6,0.3,1.3,0.8,1.7c0.5,0.5,1.1,0.8,1.7,0.8v0.8c-1,0-4.1-0.1-5-0.1c-0.7,0-3.7,0.1-4.9,0.1  V379c0.7-0.1,1.3-0.4,1.7-0.8c0.5-0.5,0.8-1.1,0.8-1.7v-9.6L544,366.4z M539.5,367.6l-7.9-12.5c-1.3-2.2-2.4-3.4-3.9-3.9v-0.8  c1.1,0,4,0.1,4.8,0.1c0.8,0,3.9-0.1,5-0.1v0.8c-1,0.2-1.5,0.7-1.5,1.4c0.1,0.8,0.4,1.6,0.9,2.3l5.8,9.6l5.6-9.6  c0.5-0.8,0.8-1.6,1-2.5c0-0.6-0.4-1-1.4-1.2v-0.8c0.9,0,2.9,0.1,3.6,0.1c0.6,0,2.9-0.1,3.9-0.1v0.7c-2.2,0.9-3.5,2.8-4.8,4.9  l-7.2,11.9"
   id="path10"
   clip-path="url(#clipPath5267)" />
<path
   class="st0"
   d="M393.3,350.4h18.4c0.7,0,1.4-0.1,2.1-0.3h0.8l-0.1,5.9h-0.8c-0.7-1.9-1.4-3.4-5-3.4h-8V363h6.2  c0.8,0,1.6-0.1,2.5-0.2c0.6-0.1,1.1-0.4,1.5-0.8c0.4-0.4,0.7-0.9,0.8-1.5h0.8c-0.1,0.9-0.1,3-0.1,3.6c0,0.6,0.1,2.8,0.1,3.7h-0.8  c-0.4-1.2-0.9-2.1-2.2-2.4c-0.8-0.2-1.6-0.2-2.5-0.2h-6.2v12.2h8.7c3.8,0,4.9-1.6,5.9-3.8l0.8,0.2l-0.8,6.1  c-2.6-0.2-5.2-0.3-7.7-0.2h-9.2c-0.9,0-4.1,0.1-5.1,0.1V379c1.7-0.3,2.6-1.1,2.6-2.7v-22.5c0-1.4-0.7-2.3-2.6-2.6L393.3,350.4z"
   id="path12"
   clip-path="url(#clipPath5263)" />
<path
   class="st0"
   d="M346.2,353.9c0-1.5-0.9-2.3-2.7-2.7v-0.8c1,0,4.2,0.1,5.1,0.1c0.8,0,4.1-0.1,5.1-0.1v0.8  c-1.8,0.4-2.7,1.1-2.7,2.7v22.4c0,1.5,0.9,2.3,2.7,2.7v0.8c-1,0-4.2-0.1-5.1-0.1c-0.8,0-4.1,0.1-5.1,0.1V379  c1.8-0.3,2.7-1.1,2.7-2.7V353.9z"
   id="path14"
   clip-path="url(#clipPath5259)" />
<path
   class="st0"
   d="M486.1,353.9c0-1.5-0.9-2.3-2.7-2.7v-0.8c1,0,4.2,0.1,5.1,0.1c0.7,0,4.1-0.1,5.1-0.1v0.8  c-1.8,0.4-2.7,1.1-2.7,2.7v22.4c0,1.5,0.9,2.3,2.7,2.7v0.8c-1,0-4.1-0.1-5.1-0.1c-0.7,0-4.1,0.1-5.1,0.1V379  c1.8-0.3,2.7-1.1,2.7-2.7V353.9z"
   id="path16"
   clip-path="url(#clipPath5255)" />
<path
   class="st0"
   d="M511.7,350.5c-10.1,0-11.7-0.2-13.8-0.3v6.1h0.8c0.7-2.7,2.2-3.3,4.2-3.3h6.3v23.4c0,1.6-0.9,2.4-2.7,2.7v0.8  c1,0,4.4-0.1,5.1-0.1c0.9,0,4.1,0.1,5.1,0.1V379c-1.8-0.4-2.7-1.2-2.7-2.7v-23.4h6.3c2,0,3.5,0.7,4.2,3.3h0.8v-6.1  C523.4,350.3,521.8,350.5,511.7,350.5"
   id="path18"
   clip-path="url(#clipPath5251)" />
<path
   class="st0"
   d="M431.1,364.3c1.2,0.1,2.5,0.2,3.7,0.2c5.5,0,7.3-3.2,7.3-6c0-4-2.7-6.4-7.5-6.4c-1.2,0-2.3,0.1-3.5,0.3  L431.1,364.3z M431.1,376.3c0,1.5,1,2.3,2.7,2.7v0.8c-1,0-4.2-0.1-5.1-0.1c-0.8,0-3.9,0.1-4.9,0.1V379c1.7-0.3,2.6-1.1,2.6-2.7  v-22.6c0-1.4-0.7-2.2-2.6-2.6v-0.8c1,0,4.1,0.1,5,0.1c1.4,0,5.6-0.2,7.2-0.2c7.1,0,11,2.9,11,7.9c0,3.9-2.9,6.6-7.5,7.7  c0.8,0.5,1.5,1.1,2.1,1.8c1.2,1.5,4.6,6.3,6,8s3.2,3.6,5.1,3.7v0.7c-1.2,0.2-2.3,0.4-3.5,0.4c-2.4,0-4.3-0.8-6.2-3.1  c-1.6-2-4.4-6-6-8.1c-0.5-0.7-1.2-1.4-2-1.8c-0.8-0.5-1.7-0.8-2.6-0.9c-0.4-0.1-0.9-0.1-1.4-0.2L431.1,376.3z"
   id="path20"
   clip-path="url(#clipPath5247)" />
<path
   class="st0"
   d="M360.8,354c-0.3-0.7-0.7-1.3-1.3-1.8c-0.6-0.5-1.3-0.8-2-1v-0.8c1.1,0,4.7,0.1,5.5,0.1c0.8,0,3.9-0.1,5-0.1v0.8  c-1,0.2-2.1,0.7-2.1,1.7c0,0.7,0.4,1.6,1.2,3.4l7.6,17.3l7.2-17.3c0.5-1,0.8-2.2,1-3.3c0-0.9-0.8-1.5-2-1.8v-0.8c1,0,3.3,0.1,4,0.1  c0.7,0,3.4-0.1,4.5-0.1v0.8c-1.8,0.5-2.9,1.5-3.9,3.8l-10.6,24.9h-2.4L360.8,354z"
   id="path22"
   clip-path="url(#clipPath5243)" />
<path
   class="st0"
   d="M388.1,275.4c-1.2-2.7-3.1-4.7-6.3-5.4v-1.6c2,0,8.6,0.2,10.1,0.2c1.4,0,7.8-0.2,9.8-0.2v1.5  c-1.8,0.4-3.9,1.4-3.9,3.2c0,1.3,0.8,3.1,2.3,6.5l14.5,32.7l13.7-32.8c1.1-2.7,1.9-4.7,1.9-6.3c0-1.7-1.6-2.9-3.9-3.4v-1.5  c1.8,0,6.2,0.2,7.6,0.2c1.3,0,6.5-0.2,8.5-0.2v1.5c-3.4,0.9-5.5,2.9-7.4,7.3l-20.2,47.3h-4.5L388.1,275.4z"
   id="path24"
   clip-path="url(#clipPath5239)" />
<path
   class="st0"
   d="M193.1,322.7c2.6-0.6,4.5-1.8,4.5-4.8v-43.3c0-2.9-1.7-4-4.5-4.7v-1.5c1.4,0,7.3,0.2,8.8,0.2  c1.7,0,7.9-0.2,9.3-0.2v1.5c-2.6,0.6-4.6,1.8-4.6,4.7v18.1H239v-18.1c0-3-1.7-4.1-4.5-4.7v-1.5c1.4,0,7.5,0.2,9.2,0.2  c1.4,0,7.5-0.2,8.9-0.2v1.5c-2.6,0.6-4.6,1.8-4.6,4.7V318c0,2.8,1.8,4,4.6,4.8v1.4c-1.4,0-7.5-0.1-8.9-0.1c-1.7,0-7.8,0.1-9.2,0.1  v-1.4c2.6-0.6,4.5-1.8,4.5-4.8v-20.5h-32.5V318c0,3,1.8,4,4.6,4.8v1.4c-1.4,0-7.6-0.1-9.3-0.1c-1.4,0-7.4,0.1-8.8,0.1V322.7z"
   id="path26"
   clip-path="url(#clipPath5235)" />
<path
   class="st0"
   d="M582.8,319.8c2.9,0.4,5.8,0.6,8.8,0.6c16.8,0,25.5-10,25.5-24c0-14.5-9.2-24.7-24.9-24.7  c-3.1,0-6.3,0.2-9.4,0.6V319.8z M568.6,322.7c3.4-0.6,5.2-1.9,5.2-5v-43.1c0-3-1.8-4.1-5.1-4.7v-1.6c1.9,0,8,0.2,9.7,0.2  c2.7,0,10.3-0.6,16.3-0.6c20,0,32.1,11.1,32.1,27.9c0,16.4-12.6,28.5-33.2,28.5c-5.9,0-13-0.5-15.7-0.5c-1.7,0-7.4,0.2-9.2,0.2  L568.6,322.7z"
   id="path28"
   clip-path="url(#clipPath5231)" />
<path
   class="st0"
   d="M342.5,294.8c2.3,0.3,4.7,0.4,7,0.3c10.5,0,13.8-6,13.8-11.3c0-7.5-5.1-12.2-14.3-12.2c-2.2,0-4.4,0.2-6.6,0.6  V294.8z M342.5,317.6c0,2.9,1.8,4.5,5.2,5.1v1.5c-1.9,0-8-0.2-9.7-0.2c-1.5,0-7.5,0.2-9.4,0.2v-1.5c3.1-0.6,5-2.1,5-5.1v-42.8  c0-2.6-1.4-4.3-5-4.9v-1.5c1.9,0,7.8,0.2,9.5,0.2c2.7,0,10.5-0.5,13.6-0.5c13.4,0,20.9,5.5,20.9,15c0,7.4-5.6,12.5-14.1,14.5  c1.5,0.9,2.8,2.1,3.9,3.4c2.4,2.8,8.9,12.1,11.6,15.3c2.6,3.2,6,6.8,9.7,6.9v1.3c-2.2,0.4-4.4,0.7-6.6,0.7c-4.6,0-8.2-1.6-11.8-5.9  c-3.1-3.7-8.4-11.6-11.4-15.4c-1-1.4-2.3-2.6-3.8-3.4c-1.5-0.9-3.1-1.4-4.8-1.7c-0.9-0.1-1.7-0.3-2.6-0.4L342.5,317.6z"
   id="path30"
   clip-path="url(#clipPath5227)" />
<path
   class="st0"
   d="M519.5,294.8c2.3,0.3,4.7,0.4,7,0.3c10.5,0,13.8-6,13.8-11.3c0-7.5-5.1-12.2-14.2-12.2c-2.2,0-4.4,0.2-6.6,0.6  V294.8z M519.5,317.6c0,2.9,1.8,4.5,5.2,5.1v1.5c-1.9,0-8-0.2-9.7-0.2c-1.5,0-7.5,0.2-9.4,0.2v-1.5c3.1-0.6,5-2.1,5-5.1v-42.8  c0-2.6-1.4-4.3-4.9-4.9v-1.5c1.9,0,7.8,0.2,9.5,0.2c2.8,0,10.5-0.5,13.6-0.5c13.4,0,20.9,5.5,20.9,15c0,7.4-5.6,12.5-14.1,14.5  c1.5,0.9,2.8,2.1,3.9,3.4c2.4,2.8,9,12.1,11.6,15.3s6,6.8,9.6,6.9v1.3c-2.2,0.4-4.4,0.7-6.6,0.7c-4.6,0-8.2-1.6-11.8-5.9  c-3-3.7-8.4-11.6-11.4-15.4c-1-1.4-2.3-2.6-3.8-3.4c-1.5-0.9-3.1-1.4-4.8-1.7c-0.9-0.1-1.7-0.3-2.6-0.4L519.5,317.6z"
   id="path32"
   clip-path="url(#clipPath5223)" />
<path
   class="st0"
   d="M296.9,301.8l-9-20.7l-8.3,20.7H296.9z M261.1,322.7c3.6-0.8,5.5-3.1,6.8-6.2l18-43c0.7-1.8,1.2-3.6,1.7-5.4h5  c0.4,1.8,1,3.7,1.6,5.4l19,43.1c1.4,3,2.8,5.1,6.6,6.1v1.4c-2.1,0-8.5-0.1-9.9-0.1c-1.5,0-7.5,0.1-9.6,0.1v-1.4  c2.8-0.7,3.6-2.1,3.6-3.4c-0.1-1.3-0.5-2.6-1.1-3.8l-4.1-9.3h-20.9l-3.7,9.3c-0.5,1.1-0.8,2.3-0.9,3.6c0,1.6,0.8,2.8,4,3.6v1.4  c-1.9,0-6.8-0.1-7.9-0.1l-8.1,0.1L261.1,322.7z"
   id="path34"
   clip-path="url(#clipPath5219)" />
<path
   class="st0"
   d="M475,301.8l-9-20.7l-8.3,20.7H475z M439.3,322.7c3.5-0.8,5.5-3.1,6.8-6.2l18-43c0.7-1.8,1.2-3.6,1.7-5.4h5  c0.4,1.8,1,3.7,1.6,5.4l19,43.1c1.3,3,2.8,5.1,6.6,6.1v1.4c-2.1,0-8.5-0.1-9.9-0.1c-1.5,0-7.5,0.1-9.6,0.1v-1.4  c2.8-0.7,3.6-2.1,3.6-3.4c-0.1-1.3-0.5-2.6-1-3.8l-4.1-9.3h-20.9l-3.7,9.3c-0.5,1.1-0.8,2.3-0.9,3.6c0,1.6,0.8,2.8,4,3.6v1.4  c-1.9,0-6.8-0.1-7.9-0.1l-8.1,0.1L439.3,322.7z"
   id="path36"
   clip-path="url(#clipPath5215)" />
<path
   class="st1"
   d="M27.1,251h125.4V298c0,21.6-8.1,67.3-62.2,101.4c0,0-58.7-24.4-63.1-101.4V251z"
   id="path38"
   clip-path="url(#clipPath5211)" />
<path
   class="st2"
   d="M26.8,250.8h125.5V298c0,21.6-8.1,67.3-62.3,101.4c0,0-58.7-24.4-63.2-101.4V250.8z"
   id="path40"
   clip-path="url(#clipPath5207)" />
<path
   class="st3"
   d="M122,311.5c0,0-1.1,3.5-6.1-0.1L98.8,311c0,0-2.2,0.7-2.5-1.6c0,0,0.4-4.6,0.2-5c0,0,0.1-1.3-2.1-1.3  c0,0-3.4,0.4-3.6-2.6c0,0-0.6-3.2,4.2-3.1c0,0,1.5,0.7,1.6-1.2c0,0-0.2-13.1-0.1-14.1c0,0,0.4-1.2-1.9-1.4c0,0-3.4,0.7-3.7-1.5  c0,0-0.2-3.3,2-3.5c0,0,2.7,0.2,3.2-0.5c0,0,0.6,0.4,0.5-2l0.1-4.1c0,0,0.3-1.1,2-1c0,0,3.2,0.2,3.6-0.1c0.3-0.4,0.6-0.9,0.9-1.3  c0,0,1.6-0.1,1.9,0.3c0,0,2.4,1.6,11.7,1c0,0,1.4,0,1.7,0.4c0,0,1.7,1.3,2.7-0.1c2-0.3,4-0.4,6-0.3c0,0,5,1.3,8.4-1.5l1.1,0.2  c0,0,1.4,2.3,2.4,1.6c0,0,3-0.3,3.6,0.3c0,0,1,1.5,0.5,5.5c0,0-0.6,1.7,2.3,1.7c0,0,3.4-0.6,2.9,2.5c0,0,0.9,3.5-4.7,3  c-0.4,0.5-0.6,1.1-0.6,1.7c0,0-0.1,11.5-0.2,12.8c0,0-0.1,1.8,2.3,1.7c0,0,3.3-0.2,3.4,2.7c0,0,0.4,3.8-4.3,3.1c0,0-1.4,0.2-1.6,1.1  l-0.2,5c0,0,0.1,2.5-2.7,1.9c-0.4,0-15.8,0.3-17.2-0.1C122.9,311.2,122.1,311.1,122,311.5"
   id="path42"
   clip-path="url(#clipPath5203)" />
<path
   class="st3"
   d="M89.2,328.3c0.4-0.2,0.7-0.4,0.9-0.8c0,0,2.1-0.2,2.4-0.5l6.7,0.5c0,0,6.6,0.5,9.4-1.5c0.6,0,1.2,0.1,1.7,0.3  c0,0,1.4,0.3,1.8,0.9l3.9-0.1c0,0,2.2,0.7,2,2.1v1.8c0,0-0.4,3.6,0.6,3.8h3c0,0,2.4,1.1,2.1,2.5c0,0.6-0.2,1.1-0.6,1.6  c-0.4,0.4-0.9,0.7-1.5,0.8c-0.9,0.3-1.9,0.4-2.8,0.5c-0.4,0.6-0.7,1.3-0.8,2l-0.3,13.2c0,0-0.2,1.4,1.9,1.2c0,0,3.1-0.3,4.1,1.4  c0,0,0.8,2.9-0.8,3.4l-1.2,0.6l-2.7,0.4c0,0-1.1,0.1-1.2,2v3.5c0,0,0.1,2.4-1.8,2.4l-2.8,0.2c-0.3,0.2-0.7,0.3-1,0.4  c-0.4,0-0.7,0-1.1-0.2c0,0-17.3,0.3-17.9,0.1l-2,0.4c0,0-2.2,2-4.1,0.5l-1.4-1.1c-0.5,0.1-0.9,0.1-1.4,0.1  c-0.4-0.1-19.1,0.2-19.1,0.2s-4,0.4-4.3-0.9c0,0-0.5-5.1-0.3-5.8c0,0,0-1.5-0.9-1.6c0,0-4-0.2-4.1-0.6c0,0-2.1-1.5-1.5-3  c0.2-0.6,0.6-1.1,1.1-1.5s1.1-0.6,1.7-0.7c0,0,3.2,0.5,3.2-0.4c0.2-0.5,0.2-1.1,0.2-1.6c0,0,0.2-12,0.1-12.8c0,0,0.3-1.5-1-1.5  c-0.8,0.2-1.6,0.1-2.3-0.2c0,0-2.4,0.1-3-1.8c-0.2-0.7-0.2-1.5,0.2-2.2c0,0,1.1-2.2,4.4-1.5c0,0,1.8,0.5,2-0.8l-0.1-4.9  c0,0-0.4-1.3,2.1-2c0,0,3.3,0.9,4.3-0.7c0,0,1.1-2.2,2-0.7c0,0,1.9,1.8,7.2,1.6c0,0,9.1-0.7,9.3-0.3c0,0,2.2,0.3,2.8,1L89.2,328.3z"
   id="path44"
   clip-path="url(#clipPath5199)" />
<path
   class="st3"
   d="M61.5,311.5c0,0-1.1,3.5-6.1-0.1L38.4,311c0,0-2.2,0.7-2.5-1.6c0,0,0.4-4.6,0.2-5c0,0,0.1-1.3-2.1-1.3  c0,0-3.4,0.4-3.5-2.6c0,0-0.6-3.2,4.2-3.1c0,0,1.5,0.7,1.6-1.2c0,0-0.2-13.1-0.1-14.1c0,0,0.4-1.2-1.9-1.4c0,0-3.4,0.7-3.7-1.5  c0,0-0.2-3.3,2-3.5c0,0,2.7,0.2,3.2-0.5c0,0,0.6,0.4,0.5-2l0.1-4.2c0,0,0.3-1.1,2-1c0,0,3.2,0.2,3.6-0.1c0.3-0.4,0.6-0.9,0.9-1.3  c0,0,1.6-0.1,1.9,0.3c0,0,2.4,1.6,11.7,1c0,0,1.4,0,1.7,0.4c0,0,1.7,1.3,2.7-0.1c2-0.3,4.1-0.3,6.1-0.2c0,0,5,1.3,8.4-1.5l1.1,0.2  c0,0,1.4,2.3,2.4,1.6c0,0,3-0.3,3.6,0.3c0,0,1,1.5,0.5,5.5c0,0-0.6,1.7,2.3,1.7c0,0,3.4-0.6,3,2.5c0,0,0.9,3.5-4.7,3  c-0.4,0.5-0.6,1.1-0.6,1.7c0,0-0.1,11.5-0.2,12.8c0,0-0.1,1.8,2.3,1.7c0,0,3.2-0.2,3.3,2.7c0,0,0.4,3.8-4.3,3.1c0,0-1.4,0.2-1.6,1.1  l-0.2,5c0,0,0.1,2.5-2.7,1.9c-0.4,0-15.8,0.3-17.2-0.1C62.5,311.2,61.7,311.1,61.5,311.5"
   id="path46"
   clip-path="url(#clipPath5195)" />
<path
   d="M122,311.5c0,0-1.1,3.5-6.1-0.1L98.8,311c0,0-2.2,0.7-2.5-1.6c0,0,0.4-4.6,0.2-5c0,0,0.1-1.3-2.1-1.3c0,0-3.4,0.4-3.6-2.6  c0,0-0.6-3.2,4.2-3.1c0,0,1.5,0.7,1.6-1.2c0,0-0.2-13.1-0.1-14.1c0,0,0.4-1.2-1.9-1.4c0,0-3.4,0.7-3.7-1.5c0,0-0.2-3.3,2-3.5  c0,0,2.7,0.2,3.2-0.5c0,0,0.6,0.4,0.5-2l0.1-4.1c0,0,0.3-1.1,2-1c0,0,3.2,0.2,3.6-0.1c0.3-0.4,0.6-0.9,0.9-1.3c0,0,1.6-0.1,1.9,0.3  c0,0,2.4,1.6,11.7,1c0,0,1.4,0,1.7,0.4c0,0,1.7,1.3,2.7-0.1c2-0.3,4-0.4,6-0.3c0,0,5,1.3,8.4-1.5l1.1,0.2c0,0,1.4,2.3,2.4,1.6  c0,0,3-0.3,3.6,0.3c0,0,1,1.5,0.5,5.5c0,0-0.6,1.7,2.3,1.7c0,0,3.4-0.6,2.9,2.5c0,0,0.9,3.5-4.7,3c-0.4,0.5-0.6,1.1-0.6,1.7  c0,0-0.1,11.5-0.2,12.8c0,0-0.1,1.8,2.3,1.7c0,0,3.3-0.2,3.4,2.7c0,0,0.4,3.8-4.3,3.1c0,0-1.4,0.2-1.6,1.1l-0.2,5  c0,0,0.1,2.5-2.7,1.9c-0.4,0-15.8,0.3-17.2-0.1C122.9,311.2,122.1,311.1,122,311.5"
   id="path48"
   clip-path="url(#clipPath5191)" />
<path
   class="st4"
   d="M122,311.5c0,0-1.1,3.5-6.1-0.1L98.8,311c0,0-2.2,0.7-2.5-1.6c0,0,0.4-4.6,0.2-5c0,0,0.1-1.3-2.1-1.3  c0,0-3.4,0.4-3.6-2.6c0,0-0.6-3.2,4.2-3.1c0,0,1.5,0.7,1.6-1.2c0,0-0.2-13.1-0.1-14.1c0,0,0.4-1.2-1.9-1.4c0,0-3.4,0.7-3.7-1.5  c0,0-0.2-3.3,2-3.5c0,0,2.7,0.2,3.2-0.5c0,0,0.6,0.4,0.5-2l0.1-4.1c0,0,0.3-1.1,2-1c0,0,3.1,0.2,3.6-0.1c0.3-0.4,0.6-0.9,0.9-1.3  c0,0,1.6-0.1,1.9,0.3c0,0,2.4,1.6,11.7,1c0,0,1.4,0,1.7,0.4c0,0,1.7,1.3,2.7-0.1c2-0.3,4-0.4,6-0.3c0,0,5,1.3,8.4-1.5l1.1,0.2  c0,0,1.4,2.3,2.4,1.6c0,0,3-0.3,3.6,0.3c0,0,1,1.5,0.5,5.5c0,0-0.6,1.7,2.3,1.7c0,0,3.4-0.6,2.9,2.5c0,0,0.9,3.5-4.7,3  c-0.4,0.5-0.6,1.1-0.6,1.7c0,0-0.1,11.5-0.2,12.8c0,0-0.1,1.8,2.3,1.7c0,0,3.3-0.2,3.4,2.7c0,0,0.4,3.8-4.3,3.1c0,0-1.4,0.2-1.6,1.1  l-0.2,5c0,0,0.1,2.5-2.7,1.9c-0.4,0-15.8,0.3-17.2-0.1C122.9,311.2,122.2,311.1,122,311.5z"
   id="path50"
   clip-path="url(#clipPath5187)" />
<path
   class="st3"
   d="M102.8,269.9c0,0,0.2,2,0.2,2.5s-0.3,29.2-0.3,29.2c0.1,0.7,0,1.3-0.3,1.9c-0.3,0.6-0.7,1.1-1.3,1.4  c0,0-0.5,0.2-0.6-1.2l0.2-30.3C100.6,273.4,100.8,269.7,102.8,269.9z"
   id="path52"
   clip-path="url(#clipPath5183)" />
<path
   class="st4"
   d="M102.8,269.9c0,0,0.2,2,0.2,2.5s-0.3,29.2-0.3,29.2c0.1,0.7,0,1.3-0.3,1.9c-0.3,0.6-0.7,1.1-1.3,1.4  c0,0-0.5,0.2-0.6-1.2l0.2-30.3C100.6,273.4,100.8,269.7,102.8,269.9z"
   id="path54"
   clip-path="url(#clipPath5179)" />
<path
   class="st3"
   d="M99.4,305.2c0,0,0.2-28.5,0.1-28.9c-0.1-0.5,0.1,0.4,0.1,0.4s-0.3-5,1-7c0,0-0.4-1.7-2.7,0.4l-0.1,4.1  c0,0,0,2.3-2.1,2.2c0,0-2.4-0.1-3.6,1c0,0-0.6,2.2,1.7,1.8c0,0,3.7,0,3.9,1.5L97.5,296c0,0,0.8,2.5-2,2.5c0,0-3.5-0.2-3.4,1.9  c0,0,0.7,1.8,3.7,1.2c0,0,2.1,0.4,2,2.4v3.8c0,0-0.2,1.5,1.8,1.6h15.8c0,0,0.8,0.1,0.8-0.9c0,0-0.1-0.8-1.3-0.8l-13.2-0.2  C101.8,307.6,99.6,308.3,99.4,305.2"
   id="path56"
   clip-path="url(#clipPath5175)" />
<path
   class="st3"
   d="M102.5,305.2c0,0-0.4,1.4,1.1,1.1H114l2.8,0.6c0,0,2.9-0.7,0-2.3c0,0-9.3,0.1-10.2-0.1l-2.3-0.6  C104.4,303.8,103.4,303.4,102.5,305.2"
   id="path58"
   clip-path="url(#clipPath5171)" />
<path
   class="st4"
   d="M102.5,305.2c0,0-0.4,1.4,1.1,1.1H114l2.8,0.6c0,0,3-0.7,0-2.3c0,0-9.3,0.1-10.2-0.1c0,0-1.9-0.5-2.3-0.6  C104.4,303.9,103.4,303.4,102.5,305.2z"
   id="path60"
   clip-path="url(#clipPath5167)" />
<path
   class="st3"
   d="M119.9,306.6c0,0-1.9,0-1.8,2.5c0.1,0.5,0.3,1,0.7,1.4c0.4,0.4,0.9,0.5,1.5,0.5c0.5-0.1,1-0.4,1.3-0.8  c0.3-0.4,0.4-1,0.3-1.5C121.9,308.7,120.8,306.2,119.9,306.6"
   id="path62"
   clip-path="url(#clipPath5163)" />
<path
   class="st3"
   d="M121.3,305.6c0,0,0.9-1,1.5-1c0,0,10.2,0.9,11.9-0.3c0,0,1.5-0.3,1.9,0c0,0,1.5,1.2,1.5,1.9  c0,0-0.1,0.9-1.9,0.4l-12.1,0.1C124,306.7,120.9,307.4,121.3,305.6"
   id="path64"
   clip-path="url(#clipPath5159)" />
<path
   class="st4"
   d="M121.3,305.6c0,0,0.9-1,1.5-1c0,0,10.2,0.9,11.9-0.3c0,0,1.5-0.3,1.9,0c0,0,1.5,1.2,1.5,1.9  c0,0-0.1,0.9-1.9,0.4l-12.1,0.1C124,306.7,120.9,307.4,121.3,305.6z"
   id="path66"
   clip-path="url(#clipPath5155)" />
<path
   class="st3"
   d="M122.6,308.8c0,0,0-0.8,1.4-0.8l14.2-0.1c0,0,1.3,0.7,1.3-1.7c0,0,0.5-11,0.6-23.1c0-3.6,0.2-7.4,0.1-10.9  c0,0-0.3-1.5-0.7-1.8c0,0,0-1.6,1.7-1c0,0,1.5,0.1,1.1,2.4l0.1,3.5c0,0-0.3,1.5,2.4,1.1c0,0,2.7,0.4,2.8,1.4c0,0,0.8,2-2.4,1.8h-2.4  c-0.3,0.2-0.5,0.5-0.7,0.8c-0.1,0.3-0.2,0.7-0.1,1l-0.3,14.7c0,0-0.2,2.5,2.2,2.4c0,0,2.5-0.1,3,0.7c0,0,1.7,2.5-2,2.3  c0,0-2.3-0.1-2.8,0.3c0,0-0.4,0.5-0.7,5.3c0,0,0.2,2.8-1.9,2.5c0,0-14.1,0.2-15.4-0.1c0,0-1.4,0.4-1.6-0.7"
   id="path68"
   clip-path="url(#clipPath5151)" />
<path
   class="st3"
   d="M104.3,268.9l-0.3,32.4c0,0-0.1,1.5,2.4,1.8c0,0,2.9,0.3,3.6,0c0,0,1.9-0.1,6.9,0.1c0,0,1.2,1.2,1.3-0.3  c0,0,0.8-26.2,0.4-31.7c0,0-0.1-2.3-1.8-2.4c0,0-7.7,0.6-8.4,0l-3.1-0.8C105.4,268,104.2,268.1,104.3,268.9z"
   id="path70"
   clip-path="url(#clipPath5147)" />
<path
   class="st3"
   d="M120.3,270.6c0,0-0.3,15.3-0.2,15.8l-0.2,12.8l-0.4,4.5c0,0,0.6,0.9,1.1,0.3c0,0,3.2-0.8,5.3-0.5  c0,0,6.5,0.6,7.8-0.4c0,0,1,0.5,1.3-1.1c0,0,0.4-28.3,0.2-28.8c0,0,0.4-4.1,0.2-4.5c0,0-0.1-0.9-1.8-0.1c0,0,0.2,0.8-9.4,0.5  C124.2,269,120.6,268.9,120.3,270.6z"
   id="path72"
   clip-path="url(#clipPath5143)" />
<path
   class="st3"
   d="M136.5,270.2l-0.1,31.9c0,0,0.8,2.8,2.1,2.6c0.1-0.5,0.2-1.1,0.3-1.6l0.4-30.4  C139.2,272.6,138.2,267.8,136.5,270.2"
   id="path74"
   clip-path="url(#clipPath5139)" />
<path
   class="st4"
   d="M136.5,270.2l-0.1,31.9c0,0,0.8,2.8,2.1,2.6c0.2-0.5,0.3-1.1,0.3-1.6l0.4-30.4  C139.2,272.6,138.2,267.7,136.5,270.2z"
   id="path76"
   clip-path="url(#clipPath5135)" />
<path
   d="M124,279.7c-0.3-0.8,1.7-0.9,1.7-0.9l1,0.2c0.5,0,1,0,1.4,0.2c0.1,0.1,0.2,0.3,0.2,0.5s0,0.3,0,0.5c0,0.2-0.1,0.3-0.2,0.4  c-0.1,0.1-0.3,0.2-0.4,0.3l-0.4,1.3c-0.1,1.1,0,10.7,0,10.7c0.3,0.5,0.6,1,1,1.4c0,0.9-1.1,0.7-1.1,0.7l-2.9,0.1  c-0.9-0.1-0.6-1.1-0.6-1.1c1-0.5,1.3-2.3,1.3-2.3v-10L124,279.7z"
   id="path78"
   clip-path="url(#clipPath5131)" />
<path
   d="M110.4,281.1c0.1,2.2,0.1,5.3,0.1,5.3c0.2,0.2,0.5,0.4,0.8,0.4c0.3,0.1,0.6,0.1,0.9,0c0.3-0.1,0.6-0.2,0.8-0.4  c0.2-0.2,0.4-0.4,0.5-0.7c2.5-2.4,0-4.6-0.4-5.2c-0.4-0.6-2.4-0.1-2.4-0.1L110.4,281.1z M110.3,289.1l-0.2,3.1l0.9,1.5  c0.6,0.8-0.4,1.4-0.4,1.4l-3.2-0.3c-0.6-0.3,0-1.3,0-1.3c0.3-0.2,0.5-0.5,0.6-0.8c0.2-0.3,0.3-0.7,0.3-1l-0.1-5.9l0.1-4.2  c0-0.5-0.8-1.4-0.8-1.4c-0.7-0.1-0.5-1-0.5-1c0.2-0.5,1.9-0.2,1.9-0.2h4.3c4.1,1.3,3.4,4.2,3.4,4.2c0.3,2.9-2.8,4.1-2.8,4.1  l-0.2,1.6l2.9,4.6c0.1,0.1,0.2,0.2,0.3,0.4c0.1,0.1,0.1,0.3,0.1,0.5c-0.4,1.1-2,0-2,0l-3.7-5.7C110.9,288.4,110.3,289.1,110.3,289.1  "
   id="path80"
   clip-path="url(#clipPath5127)" />
<path
   d="M89.2,328.3c0.4-0.2,0.7-0.4,0.9-0.8c0,0,2.1-0.2,2.4-0.5l6.7,0.5c0,0,6.6,0.5,9.4-1.5c0.6,0,1.2,0.1,1.7,0.3  c0,0,1.4,0.3,1.8,0.9l3.9-0.1c0,0,2.2,0.7,2,2.1v1.8c0,0-0.4,3.6,0.6,3.8h3c0,0,2.4,1.1,2.1,2.5c0,0.6-0.2,1.1-0.6,1.6  c-0.4,0.4-0.9,0.7-1.5,0.8c-0.9,0.3-1.9,0.4-2.8,0.5c-0.4,0.6-0.7,1.3-0.8,2l-0.3,13.2c0,0-0.2,1.4,1.9,1.2c0,0,3.1-0.3,4.1,1.4  c0,0,0.8,2.9-0.8,3.4l-1.2,0.6l-2.7,0.4c0,0-1.1,0.1-1.2,2v3.5c0,0,0.1,2.4-1.8,2.4l-2.8,0.2c-0.3,0.2-0.7,0.3-1,0.4  c-0.4,0-0.7,0-1.1-0.2c0,0-17.3,0.3-17.9,0.1l-2,0.4c0,0-2.2,2-4.1,0.5l-1.4-1.1c-0.5,0.1-0.9,0.1-1.4,0.1  c-0.4-0.1-19.1,0.2-19.1,0.2s-4,0.4-4.3-0.9c0,0-0.5-5.1-0.3-5.8c0,0,0-1.5-0.9-1.6c0,0-4-0.2-4.1-0.6c0,0-2.1-1.5-1.5-3  c0.2-0.6,0.6-1.1,1.1-1.5s1.1-0.6,1.7-0.7c0,0,3.2,0.5,3.2-0.4c0.2-0.5,0.2-1.1,0.2-1.6c0,0,0.2-12,0.1-12.8c0,0,0.3-1.5-1-1.5  c-0.8,0.2-1.6,0.1-2.3-0.2c0,0-2.4,0.1-3-1.8c-0.2-0.7-0.2-1.5,0.2-2.2c0,0,1.1-2.2,4.4-1.5c0,0,1.8,0.5,2-0.8l-0.1-4.9  c0,0-0.4-1.3,2.1-2c0,0,3.3,0.9,4.3-0.7c0,0,1.1-2.2,2-0.7c0,0,1.9,1.8,7.2,1.6c0,0,9.1-0.7,9.3-0.3c0,0,2.2,0.3,2.8,1L89.2,328.3z"
   id="path82"
   clip-path="url(#clipPath5123)" />
<path
   class="st4"
   d="M89.2,328.2c0.4-0.2,0.7-0.4,0.9-0.8c0,0,2.1-0.2,2.4-0.5l6.7,0.5c0,0,6.6,0.5,9.4-1.5c0.6,0,1.2,0.1,1.7,0.3  c0,0,1.4,0.3,1.8,0.9l3.9-0.1c0,0,2.2,0.7,2,2.1v1.8c0,0-0.4,3.6,0.6,3.8h2.9c0,0,2.4,1.1,2.1,2.5c0,0.6-0.2,1.1-0.6,1.6  c-0.4,0.4-0.9,0.7-1.5,0.8c-0.9,0.3-1.9,0.4-2.8,0.5c-0.4,0.6-0.7,1.3-0.8,2l-0.3,13.2c0,0-0.2,1.4,1.9,1.2c0,0,3.1-0.3,4.1,1.4  c0,0,0.8,2.9-0.8,3.4l-1.2,0.6l-2.7,0.4c0,0-1.1,0.1-1.2,2v3.5c0,0,0.1,2.4-1.8,2.4l-2.8,0.2c-0.3,0.2-0.7,0.3-1,0.4  c-0.4,0-0.7,0-1.1-0.2c0,0-17.3,0.3-17.9,0.1l-2,0.4c0,0-2.2,2-4.1,0.5l-1.4-1.1c-0.5,0.1-0.9,0.1-1.4,0.1  c-0.4-0.1-19.1,0.2-19.1,0.2s-4,0.4-4.3-0.9c0,0-0.5-5.2-0.3-5.8c0,0,0-1.5-0.9-1.6c0,0-4-0.2-4.1-0.6c0,0-2.1-1.5-1.5-3  c0.2-0.6,0.6-1.1,1.1-1.5c0.5-0.4,1.1-0.6,1.7-0.7c0,0,3.2,0.5,3.2-0.4c0.2-0.5,0.2-1.1,0.2-1.6c0,0,0.2-12,0.1-12.8  c0,0,0.3-1.5-1-1.5c-0.8,0.2-1.6,0.1-2.3-0.2c0,0-2.4,0.1-2.9-1.8c-0.2-0.7-0.2-1.5,0.2-2.2c0,0,1.1-2.2,4.4-1.5c0,0,1.8,0.5,2-0.8  l-0.1-4.9c0,0-0.4-1.3,2.1-2c0,0,3.2,0.9,4.3-0.7c0,0,1.1-2.2,2-0.7c0,0,1.9,1.8,7.2,1.6c0,0,9.1-0.7,9.3-0.3c0,0,2.2,0.3,2.8,1  L89.2,328.2z"
   id="path84"
   clip-path="url(#clipPath5119)" />
<path
   class="st3"
   d="M91.8,368c0.6-0.3,1.3-0.5,2-0.4c0.8,0.2,12.7-0.1,12.7-0.1s5.2,0.4,6-0.3l1.2-0.4c0.3-0.4,0.5-0.9,0.5-1.4  c0-0.8,0.1-3.5,0.1-3.5l0.3-1c0,0-0.1-1,0-28c0,0,0.4-2.1-0.9-3.4c0,0,0-0.8,0.4-0.7c0.4,0.1,0.2,0.1,0.2,0.1s1.8-0.5,2.1,0.2  c0,0,0.8,2.4,0.1,3.8c0,0-0.2,3,1.3,3c0.3,0.2,0.6,0.3,0.9,0.4c0.3,0.1,0.6,0,1-0.1c0,0,2.6,0.3,2.6,1.1c0,0.2,0,0.5-0.1,0.7  c-0.1,0.2-0.2,0.4-0.4,0.5c-0.2,0.1-0.4,0.2-0.6,0.3c-0.2,0.1-0.5,0.1-0.7,0l-2.4,0.2c-0.5,0.1-0.9,0.4-1.2,0.8  c-0.3,0.4-0.4,0.9-0.3,1.4c0.2,1.9-0.1,15.7-0.1,15.7s0,1.6,2.5,1.5c0,0,3.1-0.1,3.1,0.8c0,0,0.8,2-1.4,2.1c0,0-4.3-0.1-4,1.1  c-0.1,1.1-0.3,2.2-0.5,3.3c0,0,0.4,2.3-0.1,2.7c0,0-0.3,1.3-3,1.1c0,0-17.5-0.1-20.2,0.1C93,369.6,91.4,369.4,91.8,368"
   id="path86"
   clip-path="url(#clipPath5115)" />
<path
   class="st3"
   d="M88.7,366.1c0.5,0.1,0.9,0.3,1.2,0.7c0.3,0.4,0.5,0.8,0.5,1.3c0,1.6,0.1,2.5-0.9,2.7c-0.3,0.1-0.5,0.1-0.8,0.1  c-0.3,0-0.5-0.1-0.7-0.2c-0.2-0.1-0.4-0.3-0.6-0.5c-0.2-0.2-0.3-0.5-0.3-0.7C86.7,368,87.2,366.4,88.7,366.1z"
   id="path88"
   clip-path="url(#clipPath5111)" />
<path
   class="st3"
   d="M90.7,365.3c0,0,1.8-1.2,2.5-1c0,0,9.2,0.6,12.1,0.1c2.9-0.5,1.1-0.1,1.1-0.1s2.4,0,3.1-0.9  c0.2,0,0.4,0,0.7,0.1c0.2,0.1,0.4,0.2,0.5,0.4l1.5,1.6c0,0,0.1,1-1.6,0.9c0,0-16.6,0-17.1,0.1C93.5,366.5,90.4,367,90.7,365.3"
   id="path90"
   clip-path="url(#clipPath5107)" />
<path
   class="st4"
   d="M90.7,365.3c0,0,1.8-1.2,2.5-1c0,0,9.3,0.6,12.1,0.1c2.8-0.5,1.1-0.1,1.1-0.1s2.4,0,3.2-0.9  c0.2,0,0.4,0,0.6,0.1c0.2,0.1,0.4,0.2,0.5,0.4l1.5,1.6c0,0,0.1,1-1.6,0.9c0,0-16.6,0-17.1,0.1C93.5,366.5,90.4,367,90.7,365.3z"
   id="path92"
   clip-path="url(#clipPath5103)" />
<path
   class="st3"
   d="M66.6,329.5c0,0,0.7,0,0.6,1.2L67,361.2c0.1,0.6,0,1.3-0.3,1.8c-0.2,0.6-0.6,1.1-1.1,1.5c0,0-0.9,1.1-0.9-0.6  l0.4-31.1C65.1,332.8,65.2,330.5,66.6,329.5"
   id="path94"
   clip-path="url(#clipPath5099)" />
<path
   class="st4"
   d="M66.6,329.5c0,0,0.7,0,0.6,1.2L67,361.2c0.1,0.6,0,1.3-0.3,1.9c-0.2,0.6-0.6,1.1-1.1,1.5c0,0-0.9,1.1-0.9-0.6  l0.4-31.1C65.1,332.8,65.2,330.5,66.6,329.5z"
   id="path96"
   clip-path="url(#clipPath5095)" />
<path
   class="st3"
   d="M65,329.7c0,0-1.2,2.2-1.1,2.7l-0.1,6.8c0,0-0.1,4.3,0,4.8c0.1,0.5-0.1,13.2-0.1,13.2s-0.1,2.4,0,3.2v5.4  c0,0-0.2,2.4,1.6,1.8c0,0,17.9-0.4,19-0.1c0,0,1.6,0.3,1,1.1c0,0,0,0.7-1.1,0.5c-5.3,0.5-10.7,0.6-16,0.5c0,0-5.1,0.3-5.4-0.3  c0,0-0.8-0.1-0.8-3c0-1.1,0-2.2-0.2-3.2c0,0,0.2-1.4-2.3-1.7c0,0-3.6,0.6-3.7-1.5c0,0,0.5-1.5,4-1.3c0,0,2.5,0.4,2-1.6l0.3-14.9  c0,0,0.3-2.6-1.4-2.7c-0.7,0-1.4,0-2.1,0.1c0,0-2.9,0-2.7-1.7c0,0,1-1.8,4-1.4c0,0,2.2,0.4,2.3-2.1c0,0-0.1-5.2,1.1-5.4  C63.2,328.9,65.7,329,65,329.7"
   id="path98"
   clip-path="url(#clipPath5091)" />
<path
   class="st3"
   d="M68,363.1c0.5,0.5,1.1,0.8,1.7,1.1c0.6,0.2,1.3,0.4,2,0.3l13.8,0.2c0,0,1.5,0.1,1.4,0.9c0,0-0.2,1.2-2,0.8  l-16.6-0.2l-1.8,0.1c0,0-1.2-0.2,0.7-2.5L68,363.1z"
   id="path100"
   clip-path="url(#clipPath5087)" />
<path
   class="st4"
   d="M68,363.1c0.5,0.5,1.1,0.8,1.7,1.1c0.6,0.2,1.3,0.4,2,0.3l13.8,0.2c0,0,1.5,0.1,1.4,0.9c0,0-0.2,1.2-2,0.8  l-16.7-0.2l-1.8,0.1c0,0-1.2-0.2,0.7-2.5L68,363.1z"
   id="path102"
   clip-path="url(#clipPath5083)" />
<path
   class="st3"
   d="M110.7,361.8c0,0,1.2,2.3,1.8,2.6c0,0,1.1,1.3,0.8-1l0.2-29.1c-0.2-0.9-0.2-1.8,0-2.6l-1.2-2.2  c0,0-1.3-1-1.3,0.6l-0.2,31L110.7,361.8z"
   id="path104"
   clip-path="url(#clipPath5079)" />
<path
   class="st4"
   d="M110.7,361.8c0,0,1.2,2.3,1.8,2.6c0,0,1.1,1.3,0.8-1l0.2-29.1c-0.2-0.9-0.2-1.8,0-2.6l-1.2-2.2  c0,0-1.3-1-1.3,0.6l-0.2,31L110.7,361.8z"
   id="path106"
   clip-path="url(#clipPath5075)" />
<path
   class="st3"
   d="M88.2,347.9c0,1.6,0,3.2-0.2,4.7c-0.2,1.3,0.4,7.2-0.1,10.2c0,0-0.1,1-2.2,0.1c0,0-13,0.3-13.4-0.1  c0,0-3.6,0.1-3.9-1.7c0,0,0.5-13.8,0.2-14.3c0,0-0.2-7.6,0-8.3c0,0,0.3-7,0.1-7.8c0.1-0.8,0-1.6-0.2-2.4c0,0,0-1,1.7-0.4  c0,0,0.6,1.1,4,0.6c1.6,0.2,3.2,0.3,4.8,0.1c0,0,5.2-0.4,6.5,0c0.6-0.1,1.2,0,1.7,0.4c0.5,0.3,0.8,0.9,0.9,1.5l-0.1,6.3l0.6,2  l0.7-0.5l0.3-1.5l0.1-6.7c0.2-0.4,0.5-0.7,0.8-1c0.4-0.3,0.8-0.4,1.2-0.4c0,0,2.5-0.3,3-0.1c2.5,0.3,4.9,0.4,7.4,0.2  c1.5-0.3,1.8,1,6.4-1.3c0,0,1.2,0.1,1.2,0.9c0,0-0.4,8.6,0,10.2c0,0,0,15.8-0.3,16.9l0.2,5c0,0,0.2,2.2-3.3,2.4  c0,0,2.2,0.3-11.8-0.1c-1.6,0-3.2,0.3-4.7,1c0,0-0.5-0.1-0.5-1.4c0.2-3.1,0.2-6.3,0-9.4l-0.2-5.2L88.2,347.9z"
   id="path108"
   clip-path="url(#clipPath5071)" />
<path
   d="M79,340.8c0,0,0.3,7.5,0,8.5l-0.1,1.6c0.2,0.6,0.6,1.1,1,1.5c0,0,0.5,1.4-0.7,1.3c-1-0.1-2.1-0.1-3.1-0.1c0,0-1.4,0,0-1.8  c0.4-0.8,0.5-1.7,0.4-2.5c0,0,0-8.5,0.2-9c0,0,0.2-1.1-0.5-1.4l-1.2,0.1l-1.5,1.4c0,0-0.3,1.5-1-0.1v-0.8l0.9-2.4l0.6-0.1  c0.5,0.4,1.1,0.6,1.7,0.8h4.8l1.7-0.8c0,0,0.7,0.1,0.5,1c0,0,0.3,2.3-1,2.6c-0.3-0.1-0.5-0.3-0.8-0.6c-0.2-0.2-0.4-0.5-0.5-0.8  C80.4,339.1,79.1,338.4,79,340.8"
   id="path110"
   clip-path="url(#clipPath5067)" />
<path
   d="M101.4,338c-0.5,0-1,0-1.5,0.2c-0.5,0.2-0.9,0.5-1.3,0.8c-0.4,0.4-0.7,0.8-0.9,1.3c-0.2,0.5-0.3,1-0.2,1.5  c0,0-0.4,2.8,3.9,4.7c0,0,3.2,1.5,2.9,3.4c0,0-0.4,3.4-3.7,1.7c0,0-1.6-0.8-1.5-1.7c0,0-0.5-1.1-1.1-0.9c0,0-0.7,0.2-0.4,3.5  c0,0,0,1.3,1.5,0l0.8,0.2c0,0,2.7,2.2,5.1-0.5c0,0,2.5-2.3,0.7-5.1c-0.9-1.3-2.2-2.3-3.7-3c0,0-2.2-1-2.7-2.7c0,0,0.7-3,3.4-1.4  c0.5,0.6,1,1,1.6,1.4c0,0,0.8,0,0.6-1.8l-0.2-1.5c0,0-0.2-1.1-1.6,0C103.1,338.1,101.8,338.6,101.4,338"
   id="path112"
   clip-path="url(#clipPath5063)" />
<path
   d="M87.4,342.6c-0.1,0.5-0.8,3.3-0.8,3.3l0.6,1c0,0,1.6,0.1,2.2,0.1c0.6,0,0.7-0.5,0.7-1c-0.3-1.2-0.7-2.4-1.1-3.5l-0.5-0.6  L87.4,342.6z M89.1,335.9c0.5,0.4,0.7,0.9,0.8,1.5c1.5,4.3,2.7,8.7,3.7,13.1c0.4,0.7,0.9,1.3,1.4,1.8c1.7,0.6,0,1.1,0,1.1  c-0.7,0.3-3-0.1-3-0.1c-1.2-0.2-0.7-0.6-0.7-0.6c0.5-0.5,0.1-2.5,0.1-2.5c-0.2-0.8-0.6-1.5-1-2.1c-0.4-0.2-1.1,0.7-1.1,0.7  s-1.1,0.4-1.2,0c-0.1-0.4-0.8-0.8-0.8-0.8c-1.2,0-1.7,3-1.7,3c0.7,2.5,0,2.1,0,2.1c-0.6,0.8-2.5,0.2-2.5,0.2  c-0.9-0.2-0.3-0.9-0.3-0.9c0.3-0.1,0.7-0.3,0.9-0.5c0.2-0.2,0.4-0.6,0.5-0.9c0.5-0.7,3.7-13.8,3.7-13.8  C88.1,336.6,88.3,335.4,89.1,335.9"
   id="path114"
   clip-path="url(#clipPath5059)" />
<path
   d="M61.5,311.5c0,0-1.1,3.5-6.1-0.1L38.4,311c0,0-2.2,0.7-2.5-1.6c0,0,0.4-4.6,0.2-5c0,0,0.1-1.3-2.1-1.3c0,0-3.4,0.4-3.5-2.6  c0,0-0.6-3.2,4.2-3.1c0,0,1.5,0.7,1.6-1.2c0,0-0.2-13.1-0.1-14.1c0,0,0.4-1.2-1.9-1.4c0,0-3.4,0.7-3.7-1.5c0,0-0.2-3.3,2-3.5  c0,0,2.7,0.2,3.2-0.5c0,0,0.6,0.4,0.5-2l0.1-4.2c0,0,0.3-1.1,2-1c0,0,3.2,0.2,3.6-0.1c0.3-0.4,0.6-0.9,0.9-1.3c0,0,1.6-0.1,1.9,0.3  c0,0,2.4,1.6,11.7,1c0,0,1.4,0,1.7,0.4c0,0,1.7,1.3,2.7-0.1c2-0.3,4.1-0.3,6.1-0.2c0,0,5,1.3,8.4-1.5l1.1,0.2c0,0,1.4,2.3,2.4,1.6  c0,0,3-0.3,3.6,0.3c0,0,1,1.5,0.5,5.5c0,0-0.6,1.7,2.3,1.7c0,0,3.4-0.6,3,2.5c0,0,0.9,3.5-4.7,3c-0.4,0.5-0.6,1.1-0.6,1.7  c0,0-0.1,11.5-0.2,12.8c0,0-0.1,1.8,2.3,1.7c0,0,3.2-0.2,3.3,2.7c0,0,0.4,3.8-4.3,3.1c0,0-1.4,0.2-1.6,1.1l-0.2,5  c0,0,0.1,2.5-2.7,1.9c-0.4,0-15.8,0.3-17.2-0.1C62.5,311.2,61.7,311.1,61.5,311.5"
   id="path116"
   clip-path="url(#clipPath5055)" />
<path
   class="st4"
   d="M61.5,311.5c0,0-1.1,3.5-6.1-0.1L38.4,311c0,0-2.2,0.7-2.5-1.6c0,0,0.4-4.6,0.2-5c0,0,0.1-1.3-2.1-1.3  c0,0-3.4,0.4-3.5-2.6c0,0-0.6-3.2,4.2-3.1c0,0,1.5,0.7,1.6-1.2c0,0-0.2-13.1-0.1-14.1c0,0,0.4-1.2-1.9-1.4c0,0-3.4,0.7-3.7-1.5  c0,0-0.2-3.3,2-3.5c0,0,2.7,0.2,3.2-0.5c0,0,0.6,0.4,0.5-2l0.1-4.2c0,0,0.3-1.1,2-1c0,0,3.2,0.2,3.6-0.1c0.3-0.4,0.6-0.9,0.9-1.3  c0,0,1.6-0.1,1.9,0.3c0,0,2.4,1.6,11.7,1c0,0,1.4,0,1.7,0.4c0,0,1.7,1.3,2.7-0.1c2-0.3,4.1-0.3,6.1-0.2c0,0,5,1.3,8.4-1.5l1.1,0.2  c0,0,1.4,2.3,2.4,1.6c0,0,3-0.3,3.6,0.3c0,0,1,1.5,0.5,5.5c0,0-0.6,1.7,2.3,1.7c0,0,3.4-0.6,3,2.5c0,0,0.9,3.5-4.7,3  c-0.4,0.5-0.6,1.1-0.6,1.7c0,0-0.1,11.5-0.2,12.8c0,0-0.1,1.8,2.3,1.7c0,0,3.2-0.2,3.4,2.7c0,0,0.4,3.8-4.3,3.1c0,0-1.4,0.2-1.6,1.1  l-0.2,5c0,0,0.1,2.5-2.7,1.9c-0.4,0-15.8,0.3-17.2-0.1C62.5,311.2,61.7,311.1,61.5,311.5z"
   id="path118"
   clip-path="url(#clipPath5051)" />
<path
   class="st3"
   d="M42.3,269.9c0,0,0.2,2,0.2,2.5c0,0.5-0.3,29.2-0.3,29.2c0.1,0.7,0,1.3-0.3,1.9c-0.3,0.6-0.7,1.1-1.3,1.4  c0,0-0.5,0.2-0.6-1.2l0.2-30.3C40.2,273.4,40.4,269.7,42.3,269.9"
   id="path120"
   clip-path="url(#clipPath5047)" />
<path
   class="st4"
   d="M42.4,269.9c0,0,0.2,2,0.2,2.5c0,0.5-0.3,29.2-0.3,29.2c0.1,0.7,0,1.3-0.3,1.9c-0.3,0.6-0.7,1.1-1.3,1.4  c0,0-0.5,0.2-0.6-1.2l0.2-30.3C40.2,273.4,40.4,269.7,42.4,269.9z"
   id="path122"
   clip-path="url(#clipPath5043)" />
<path
   class="st3"
   d="M39,305.2c0,0,0.2-28.5,0.1-29c-0.1-0.5,0.1,0.4,0.1,0.4s-0.3-4.9,1-7c0,0-0.4-1.7-2.7,0.4l-0.1,4.1  c0,0,0,2.3-2.1,2.2c0,0-2.4-0.1-3.6,1c0,0-0.6,2.2,1.7,1.8c0,0,3.7,0,3.9,1.5L37.1,296c0,0,0.8,2.5-2,2.5c0,0-3.4-0.2-3.4,1.9  c0,0,0.7,1.8,3.7,1.2c0,0,2.1,0.4,2,2.4v3.8c0,0-0.2,1.5,1.8,1.6H55c0,0,0.8,0.1,0.8-0.9c0,0-0.1-0.8-1.3-0.8l-13.2-0.2  C41.3,307.6,39.2,308.3,39,305.2z"
   id="path124"
   clip-path="url(#clipPath5039)" />
<path
   class="st3"
   d="M41.7,305.4c0,0-0.4,1.4,1.1,1.1h10.5l2.8,0.6c0,0,3-0.7,0-2.3c0,0-9.3,0.1-10.2-0.1c0,0-1.9-0.5-2.3-0.6  C43.7,304.1,42.6,303.7,41.7,305.4"
   id="path126"
   clip-path="url(#clipPath5035)" />
<path
   class="st4"
   d="M41.7,305.4c0,0-0.4,1.4,1.1,1.1h10.5l2.9,0.6c0,0,3-0.7,0-2.3c0,0-9.3,0.1-10.2-0.1l-2.3-0.6  C43.7,304.1,42.6,303.7,41.7,305.4z"
   id="path128"
   clip-path="url(#clipPath5031)" />
<path
   class="st3"
   d="M59.1,306.9c0,0-2,0-1.8,2.5c0.1,0.5,0.3,1,0.7,1.4c0.4,0.4,0.9,0.5,1.5,0.5c0.5-0.1,1-0.4,1.3-0.8  c0.3-0.4,0.4-1,0.3-1.5C61.1,308.9,60,306.4,59.1,306.9"
   id="path130"
   clip-path="url(#clipPath5027)" />
<path
   class="st3"
   d="M60.5,305.8c0,0,0.9-1,1.5-1c0,0,10.2,0.9,11.9-0.3c0,0,1.5-0.3,1.9,0c0,0,1.5,1.2,1.5,1.9c0,0-0.1,0.9-1.9,0.4  l-12.1,0.1C63.3,306.9,60.2,307.7,60.5,305.8"
   id="path132"
   clip-path="url(#clipPath5023)" />
<path
   class="st4"
   d="M60.5,305.8c0,0,0.9-1,1.5-1c0,0,10.2,0.9,11.9-0.3c0,0,1.5-0.3,1.9,0c0,0,1.5,1.2,1.5,1.9c0,0-0.1,0.9-1.9,0.4  l-12.1,0.1C63.3,306.9,60.2,307.6,60.5,305.8z"
   id="path134"
   clip-path="url(#clipPath5019)" />
<path
   class="st3"
   d="M62.2,308.8c0,0,0-0.8,1.4-0.8l14.2-0.1c0,0,1.3,0.7,1.3-1.7c0,0,0.5-11,0.6-23.1c0-3.6,0.2-7.4,0-10.9  c0,0-0.3-1.5-0.7-1.8c0,0,0-1.6,1.7-1c0,0,1.5,0.1,1.1,2.4l0.1,3.5c0,0-0.3,1.5,2.4,1.1c0,0,2.7,0.4,2.8,1.4c0,0,0.8,2-2.4,1.8h-2.3  c-0.3,0.2-0.5,0.5-0.7,0.8c-0.1,0.3-0.2,0.7-0.1,1l-0.3,14.6c0,0-0.2,2.5,2.2,2.4c0,0,2.5-0.1,3,0.7c0,0,1.7,2.5-2,2.3  c0,0-2.3-0.1-2.8,0.3c0,0-0.4,0.5-0.7,5.3c0,0,0.2,2.8-1.9,2.5c0,0-14.1,0.2-15.4-0.1C63.7,309.5,62.3,310,62.2,308.8"
   id="path136"
   clip-path="url(#clipPath5015)" />
<path
   class="st3"
   d="M43.9,268.9l-0.3,32.4c0,0-0.1,1.5,2.4,1.8c0,0,3,0.3,3.7,0c0,0,1.9-0.1,6.9,0.1c0,0,1.2,1.2,1.3-0.3  c0,0,0.8-26.3,0.4-31.7c0,0-0.1-2.3-1.8-2.4c0,0-7.7,0.6-8.4,0l-3-0.8C45,268,43.8,268.1,43.9,268.9z"
   id="path138"
   clip-path="url(#clipPath5011)" />
<path
   class="st3"
   d="M76.1,270.2L76,302.1c0,0,0.8,2.8,2.1,2.5c0.2-0.5,0.3-1.1,0.3-1.6l0.4-30.4C78.8,272.6,77.8,267.7,76.1,270.2"
   id="path140"
   clip-path="url(#clipPath5007)" />
<path
   class="st4"
   d="M76.1,270.2L76,302.1c0,0,0.8,2.8,2.1,2.5c0.2-0.5,0.3-1.1,0.3-1.6l0.4-30.4C78.8,272.6,77.8,267.7,76.1,270.2"
   id="path142"
   clip-path="url(#clipPath5003)" />
<path
   class="st4"
   d="M76.1,270.2L76,302.1c0,0,0.8,2.8,2.1,2.5c0.2-0.5,0.3-1.1,0.3-1.6l0.4-30.4C78.8,272.6,77.8,267.7,76.1,270.2z  "
   id="path144"
   clip-path="url(#clipPath4999)" />
<path
   class="st3"
   d="M59.9,270.4c0,0-0.3,15.2-0.2,15.8L59.5,299l-0.4,4.5c0,0,0.6,0.9,1.1,0.3c0,0,3.2-0.8,5.3-0.5  c0,0,6.5,0.6,7.8-0.4c0,0,1,0.5,1.3-1.1c0,0,0.4-28.3,0.2-28.8c0,0,0.4-4,0.2-4.5c0,0-0.1-0.9-1.8-0.1c0,0,0.2,0.8-9.5,0.5  C63.8,268.9,60.1,268.8,59.9,270.4"
   id="path146"
   clip-path="url(#clipPath4995)" />
<path
   d="M56.8,279.8l-0.9,1.9c0,0-2.2,9.8-3.4,11.8c0,0-0.2,2-1.9,0.4c0,0-4-12.4-4.2-12.8l-1.3-0.9c0,0-0.8-1.1,0.6-1.2l3.7,0.1  c0,0,1.2,1-0.4,2.1c0,0,0.2,1.6,2.3,7.8c0,0,0.6,2.3,1.3,0.6l2.1-7.2l-0.6-2.1c0,0-0.6-1,0.3-1.1C54.3,279.1,56.5,278.9,56.8,279.8"
   id="path148"
   clip-path="url(#clipPath4991)" />
<path
   d="M62.7,281.4l-0.1,10.7l-0.3,0.8c0,0-1,1.3-0.3,1.4c0,0-0.9,0.6,6.5,0.7c0,0,2.9,0.5,2.1-3.1c0,0-0.3-1.3-1.3,0.6  c0,0-0.3,1.6-3.9,1.1c-0.4-0.4-0.7-0.9-0.8-1.5v-4.5c0,0-0.1-1.1,1.6-1c0,0,1.9,1.2,2.2,0.7c0,0,0.7-1.6,0-2.6c0,0-0.9-0.1-1,0.3  c0,0-0.6,1.2-2.3,0.5c-0.4-0.9-0.6-1.9-0.3-2.9c0,0-0.2-2.5,1.5-2.3c0,0,2,0.4,2.2,1c0,0,0.5,1.2,1-0.2l-0.5-1.7  c0,0-0.3-0.7-0.8-0.5c0,0-3.4,0.5-3.9,0.1l-2.7,0.3c0,0.2-0.1,0.3-0.1,0.5c0,0.2,0.1,0.3,0.1,0.4c0.1,0.1,0.2,0.3,0.3,0.4  c0.1,0.1,0.3,0.2,0.4,0.2c0.1,0.1,0.2,0.2,0.2,0.3C62.7,281.2,62.7,281.3,62.7,281.4"
   id="path150"
   clip-path="url(#clipPath4987)" />
</svg>